<svg xmlns:xlink="http://www.w3.org/1999/xlink" width="1876" height="1414" xmlns="http://www.w3.org/2000/svg" version="1.1"><defs><clipPath id="QeZHPMBHCthy"><path fill="none" stroke="none" d="M 0 0 L 1876 0 L 1876 1414 L 0 1414 L 0 0 Z" /></clipPath></defs><g clip-path="url(&quot;#QeZHPMBHCthy&quot;)" transform="scale(1)"><g><rect fill="rgb(255, 255, 255)" fill-opacity="1" stroke="none" x="0" y="0" width="1876" height="1414" /><path fill="none" stroke="rgb(192, 192, 192)" stroke-linecap="round" stroke-linejoin="round" stroke-miterlimit="10" stroke-opacity="1" d="M 14.5 0.5 L 14.5 1414.5 M 14.5 0.5 L 14.5 1414.5 M 106.5 0.5 L 106.5 1414.5 M 199.5 0.5 L 199.5 1414.5 M 292.5 0.5 L 292.5 1414.5 M 385.5 0.5 L 385.5 1414.5 M 478.5 0.5 L 478.5 1414.5 M 570.5 0.5 L 570.5 1414.5 M 663.5 0.5 L 663.5 1414.5 M 756.5 0.5 L 756.5 1414.5 M 942.5 0.5 L 942.5 1414.5 M 1035.5 0.5 L 1035.5 1414.5 M 1127.5 0.5 L 1127.5 1414.5 M 1220.5 0.5 L 1220.5 1414.5 M 1313.5 0.5 L 1313.5 1414.5 M 1406.5 0.5 L 1406.5 1414.5 M 1499.5 0.5 L 1499.5 1414.5 M 1591.5 0.5 L 1591.5 1414.5 M 1684.5 0.5 L 1684.5 1414.5 M 1777.5 0.5 L 1777.5 1414.5 M 1870.5 0.5 L 1870.5 1414.5" paint-order="fill stroke markers" /><path fill="none" stroke="rgb(192, 192, 192)" stroke-linecap="round" stroke-linejoin="round" stroke-miterlimit="10" stroke-opacity="0.235294" d="M 32.5 0.5 L 32.5 1414.5 M 51.5 0.5 L 51.5 1414.5 M 69.5 0.5 L 69.5 1414.5 M 88.5 0.5 L 88.5 1414.5 M 125.5 0.5 L 125.5 1414.5 M 144.5 0.5 L 144.5 1414.5 M 162.5 0.5 L 162.5 1414.5 M 181.5 0.5 L 181.5 1414.5 M 218.5 0.5 L 218.5 1414.5 M 236.5 0.5 L 236.5 1414.5 M 255.5 0.5 L 255.5 1414.5 M 273.5 0.5 L 273.5 1414.5 M 311.5 0.5 L 311.5 1414.5 M 329.5 0.5 L 329.5 1414.5 M 348.5 0.5 L 348.5 1414.5 M 366.5 0.5 L 366.5 1414.5 M 403.5 0.5 L 403.5 1414.5 M 422.5 0.5 L 422.5 1414.5 M 441.5 0.5 L 441.5 1414.5 M 459.5 0.5 L 459.5 1414.5 M 496.5 0.5 L 496.5 1414.5 M 515.5 0.5 L 515.5 1414.5 M 533.5 0.5 L 533.5 1414.5 M 552.5 0.5 L 552.5 1414.5 M 589.5 0.5 L 589.5 1414.5 M 608.5 0.5 L 608.5 1414.5 M 626.5 0.5 L 626.5 1414.5 M 645.5 0.5 L 645.5 1414.5 M 682.5 0.5 L 682.5 1414.5 M 700.5 0.5 L 700.5 1414.5 M 719.5 0.5 L 719.5 1414.5 M 738.5 0.5 L 738.5 1414.5 M 775.5 0.5 L 775.5 1414.5 M 793.5 0.5 L 793.5 1414.5 M 812.5 0.5 L 812.5 1414.5 M 830.5 0.5 L 830.5 1414.5 M 867.5 0.5 L 867.5 1414.5 M 886.5 0.5 L 886.5 1414.5 M 905.5 0.5 L 905.5 1414.5 M 923.5 0.5 L 923.5 1414.5 M 960.5 0.5 L 960.5 1414.5 M 979.5 0.5 L 979.5 1414.5 M 997.5 0.5 L 997.5 1414.5 M 1016.5 0.5 L 1016.5 1414.5 M 1053.5 0.5 L 1053.5 1414.5 M 1072.5 0.5 L 1072.5 1414.5 M 1090.5 0.5 L 1090.5 1414.5 M 1109.5 0.5 L 1109.5 1414.5 M 1146.5 0.5 L 1146.5 1414.5 M 1164.5 0.5 L 1164.5 1414.5 M 1183.5 0.5 L 1183.5 1414.5 M 1202.5 0.5 L 1202.5 1414.5 M 1239.5 0.5 L 1239.5 1414.5 M 1257.5 0.5 L 1257.5 1414.5 M 1276.5 0.5 L 1276.5 1414.5 M 1294.5 0.5 L 1294.5 1414.5 M 1332.5 0.5 L 1332.5 1414.5 M 1350.5 0.5 L 1350.5 1414.5 M 1369.5 0.5 L 1369.5 1414.5 M 1387.5 0.5 L 1387.5 1414.5 M 1424.5 0.5 L 1424.5 1414.5 M 1443.5 0.5 L 1443.5 1414.5 M 1461.5 0.5 L 1461.5 1414.5 M 1480.5 0.5 L 1480.5 1414.5 M 1517.5 0.5 L 1517.5 1414.5 M 1536.5 0.5 L 1536.5 1414.5 M 1554.5 0.5 L 1554.5 1414.5 M 1573.5 0.5 L 1573.5 1414.5 M 1610.5 0.5 L 1610.5 1414.5 M 1629.5 0.5 L 1629.5 1414.5 M 1647.5 0.5 L 1647.5 1414.5 M 1666.5 0.5 L 1666.5 1414.5 M 1703.5 0.5 L 1703.5 1414.5 M 1721.5 0.5 L 1721.5 1414.5 M 1740.5 0.5 L 1740.5 1414.5 M 1758.5 0.5 L 1758.5 1414.5 M 1796.5 0.5 L 1796.5 1414.5 M 1814.5 0.5 L 1814.5 1414.5 M 1833.5 0.5 L 1833.5 1414.5 M 1851.5 0.5 L 1851.5 1414.5" paint-order="fill stroke markers" /><path fill="none" stroke="rgb(192, 192, 192)" stroke-linecap="round" stroke-linejoin="round" stroke-miterlimit="10" stroke-opacity="1" d="M 0.5 23.5 L 1876.5 23.5 M 0.5 23.5 L 1876.5 23.5 M 0.5 116.5 L 1876.5 116.5 M 0.5 209.5 L 1876.5 209.5 M 0.5 301.5 L 1876.5 301.5 M 0.5 394.5 L 1876.5 394.5 M 0.5 487.5 L 1876.5 487.5 M 0.5 580.5 L 1876.5 580.5 M 0.5 765.5 L 1876.5 765.5 M 0.5 858.5 L 1876.5 858.5 M 0.5 951.5 L 1876.5 951.5 M 0.5 1044.5 L 1876.5 1044.5 M 0.5 1137.5 L 1876.5 1137.5 M 0.5 1229.5 L 1876.5 1229.5 M 0.5 1322.5 L 1876.5 1322.5" paint-order="fill stroke markers" /><path fill="none" stroke="rgb(192, 192, 192)" stroke-linecap="round" stroke-linejoin="round" stroke-miterlimit="10" stroke-opacity="0.235294" d="M 0.5 4.5 L 1876.5 4.5 M 0.5 4.5 L 1876.5 4.5 M 0.5 41.5 L 1876.5 41.5 M 0.5 60.5 L 1876.5 60.5 M 0.5 79.5 L 1876.5 79.5 M 0.5 97.5 L 1876.5 97.5 M 0.5 134.5 L 1876.5 134.5 M 0.5 153.5 L 1876.5 153.5 M 0.5 171.5 L 1876.5 171.5 M 0.5 190.5 L 1876.5 190.5 M 0.5 227.5 L 1876.5 227.5 M 0.5 246.5 L 1876.5 246.5 M 0.5 264.5 L 1876.5 264.5 M 0.5 283.5 L 1876.5 283.5 M 0.5 320.5 L 1876.5 320.5 M 0.5 338.5 L 1876.5 338.5 M 0.5 357.5 L 1876.5 357.5 M 0.5 376.5 L 1876.5 376.5 M 0.5 413.5 L 1876.5 413.5 M 0.5 431.5 L 1876.5 431.5 M 0.5 450.5 L 1876.5 450.5 M 0.5 468.5 L 1876.5 468.5 M 0.5 506.5 L 1876.5 506.5 M 0.5 524.5 L 1876.5 524.5 M 0.5 543.5 L 1876.5 543.5 M 0.5 561.5 L 1876.5 561.5 M 0.5 598.5 L 1876.5 598.5 M 0.5 617.5 L 1876.5 617.5 M 0.5 635.5 L 1876.5 635.5 M 0.5 654.5 L 1876.5 654.5 M 0.5 691.5 L 1876.5 691.5 M 0.5 710.5 L 1876.5 710.5 M 0.5 728.5 L 1876.5 728.5 M 0.5 747.5 L 1876.5 747.5 M 0.5 784.5 L 1876.5 784.5 M 0.5 803.5 L 1876.5 803.5 M 0.5 821.5 L 1876.5 821.5 M 0.5 840.5 L 1876.5 840.5 M 0.5 877.5 L 1876.5 877.5 M 0.5 895.5 L 1876.5 895.5 M 0.5 914.5 L 1876.5 914.5 M 0.5 932.5 L 1876.5 932.5 M 0.5 970.5 L 1876.5 970.5 M 0.5 988.5 L 1876.5 988.5 M 0.5 1007.5 L 1876.5 1007.5 M 0.5 1025.5 L 1876.5 1025.5 M 0.5 1062.5 L 1876.5 1062.5 M 0.5 1081.5 L 1876.5 1081.5 M 0.5 1100.5 L 1876.5 1100.5 M 0.5 1118.5 L 1876.5 1118.5 M 0.5 1155.5 L 1876.5 1155.5 M 0.5 1174.5 L 1876.5 1174.5 M 0.5 1192.5 L 1876.5 1192.5 M 0.5 1211.5 L 1876.5 1211.5 M 0.5 1248.5 L 1876.5 1248.5 M 0.5 1267.5 L 1876.5 1267.5 M 0.5 1285.5 L 1876.5 1285.5 M 0.5 1304.5 L 1876.5 1304.5 M 0.5 1341.5 L 1876.5 1341.5 M 0.5 1359.5 L 1876.5 1359.5 M 0.5 1378.5 L 1876.5 1378.5 M 0.5 1397.5 L 1876.5 1397.5" paint-order="fill stroke markers" /><path fill="none" stroke="rgb(0, 0, 0)" stroke-miterlimit="10" stroke-opacity="1" d="M 849.5 2.5 L 849.5 1414.5" paint-order="fill stroke markers" /><path fill="none" stroke="rgb(0, 0, 0)" stroke-miterlimit="10" stroke-opacity="1" d="M 849.5 1.5 L 845.5 5.5" paint-order="fill stroke markers" /><path fill="none" stroke="rgb(0, 0, 0)" stroke-miterlimit="10" stroke-opacity="1" d="M 849.5 1.5 L 853.5 5.5" paint-order="fill stroke markers" /><path fill="none" stroke="rgb(0, 0, 0)" stroke-miterlimit="10" stroke-opacity="1" d="M 0.5 673.5 L 1874.5 673.5" paint-order="fill stroke markers" /><path fill="none" stroke="rgb(0, 0, 0)" stroke-miterlimit="10" stroke-opacity="1" d="M 1875.5 673.5 L 1871.5 669.5" paint-order="fill stroke markers" /><path fill="none" stroke="rgb(0, 0, 0)" stroke-miterlimit="10" stroke-opacity="1" d="M 1875.5 673.5 L 1871.5 677.5" paint-order="fill stroke markers" /><text font-family="geogebra-sans-serif, sans-serif" font-size="12px" font-style="normal" font-weight="normal" text-decoration="normal" dominant-baseline="alphabetic" fill="rgb(0, 0, 0)" fill-opacity="1" stroke="none" text-anchor="start" x="3" y="689">–4.5</text><text font-family="geogebra-sans-serif, sans-serif" font-size="12px" font-style="normal" font-weight="normal" text-decoration="normal" dominant-baseline="alphabetic" fill="none" stroke="rgb(255, 255, 255)" stroke-linejoin="bevel" stroke-miterlimit="10" stroke-opacity="1" stroke-width="3" text-anchor="start" x="3" y="689">–4.5</text><text font-family="geogebra-sans-serif, sans-serif" font-size="12px" font-style="normal" font-weight="normal" text-decoration="normal" dominant-baseline="alphabetic" fill="rgb(0, 0, 0)" fill-opacity="1" stroke="none" text-anchor="start" x="3" y="689">–4.5</text><text font-family="geogebra-sans-serif, sans-serif" font-size="12px" font-style="normal" font-weight="normal" text-decoration="normal" dominant-baseline="alphabetic" fill="rgb(0, 0, 0)" fill-opacity="1" stroke="none" text-anchor="start" x="101" y="689">–4</text><text font-family="geogebra-sans-serif, sans-serif" font-size="12px" font-style="normal" font-weight="normal" text-decoration="normal" dominant-baseline="alphabetic" fill="none" stroke="rgb(255, 255, 255)" stroke-linejoin="bevel" stroke-miterlimit="10" stroke-opacity="1" stroke-width="3" text-anchor="start" x="101" y="689">–4</text><text font-family="geogebra-sans-serif, sans-serif" font-size="12px" font-style="normal" font-weight="normal" text-decoration="normal" dominant-baseline="alphabetic" fill="rgb(0, 0, 0)" fill-opacity="1" stroke="none" text-anchor="start" x="101" y="689">–4</text><text font-family="geogebra-sans-serif, sans-serif" font-size="12px" font-style="normal" font-weight="normal" text-decoration="normal" dominant-baseline="alphabetic" fill="rgb(0, 0, 0)" fill-opacity="1" stroke="none" text-anchor="start" x="188" y="689">–3.5</text><text font-family="geogebra-sans-serif, sans-serif" font-size="12px" font-style="normal" font-weight="normal" text-decoration="normal" dominant-baseline="alphabetic" fill="none" stroke="rgb(255, 255, 255)" stroke-linejoin="bevel" stroke-miterlimit="10" stroke-opacity="1" stroke-width="3" text-anchor="start" x="188" y="689">–3.5</text><text font-family="geogebra-sans-serif, sans-serif" font-size="12px" font-style="normal" font-weight="normal" text-decoration="normal" dominant-baseline="alphabetic" fill="rgb(0, 0, 0)" fill-opacity="1" stroke="none" text-anchor="start" x="188" y="689">–3.5</text><text font-family="geogebra-sans-serif, sans-serif" font-size="12px" font-style="normal" font-weight="normal" text-decoration="normal" dominant-baseline="alphabetic" fill="rgb(0, 0, 0)" fill-opacity="1" stroke="none" text-anchor="start" x="287" y="689">–3</text><text font-family="geogebra-sans-serif, sans-serif" font-size="12px" font-style="normal" font-weight="normal" text-decoration="normal" dominant-baseline="alphabetic" fill="none" stroke="rgb(255, 255, 255)" stroke-linejoin="bevel" stroke-miterlimit="10" stroke-opacity="1" stroke-width="3" text-anchor="start" x="287" y="689">–3</text><text font-family="geogebra-sans-serif, sans-serif" font-size="12px" font-style="normal" font-weight="normal" text-decoration="normal" dominant-baseline="alphabetic" fill="rgb(0, 0, 0)" fill-opacity="1" stroke="none" text-anchor="start" x="287" y="689">–3</text><text font-family="geogebra-sans-serif, sans-serif" font-size="12px" font-style="normal" font-weight="normal" text-decoration="normal" dominant-baseline="alphabetic" fill="rgb(0, 0, 0)" fill-opacity="1" stroke="none" text-anchor="start" x="374" y="689">–2.5</text><text font-family="geogebra-sans-serif, sans-serif" font-size="12px" font-style="normal" font-weight="normal" text-decoration="normal" dominant-baseline="alphabetic" fill="none" stroke="rgb(255, 255, 255)" stroke-linejoin="bevel" stroke-miterlimit="10" stroke-opacity="1" stroke-width="3" text-anchor="start" x="374" y="689">–2.5</text><text font-family="geogebra-sans-serif, sans-serif" font-size="12px" font-style="normal" font-weight="normal" text-decoration="normal" dominant-baseline="alphabetic" fill="rgb(0, 0, 0)" fill-opacity="1" stroke="none" text-anchor="start" x="374" y="689">–2.5</text><text font-family="geogebra-sans-serif, sans-serif" font-size="12px" font-style="normal" font-weight="normal" text-decoration="normal" dominant-baseline="alphabetic" fill="rgb(0, 0, 0)" fill-opacity="1" stroke="none" text-anchor="start" x="473" y="689">–2</text><text font-family="geogebra-sans-serif, sans-serif" font-size="12px" font-style="normal" font-weight="normal" text-decoration="normal" dominant-baseline="alphabetic" fill="none" stroke="rgb(255, 255, 255)" stroke-linejoin="bevel" stroke-miterlimit="10" stroke-opacity="1" stroke-width="3" text-anchor="start" x="473" y="689">–2</text><text font-family="geogebra-sans-serif, sans-serif" font-size="12px" font-style="normal" font-weight="normal" text-decoration="normal" dominant-baseline="alphabetic" fill="rgb(0, 0, 0)" fill-opacity="1" stroke="none" text-anchor="start" x="473" y="689">–2</text><text font-family="geogebra-sans-serif, sans-serif" font-size="12px" font-style="normal" font-weight="normal" text-decoration="normal" dominant-baseline="alphabetic" fill="rgb(0, 0, 0)" fill-opacity="1" stroke="none" text-anchor="start" x="559" y="689">–1.5</text><text font-family="geogebra-sans-serif, sans-serif" font-size="12px" font-style="normal" font-weight="normal" text-decoration="normal" dominant-baseline="alphabetic" fill="none" stroke="rgb(255, 255, 255)" stroke-linejoin="bevel" stroke-miterlimit="10" stroke-opacity="1" stroke-width="3" text-anchor="start" x="559" y="689">–1.5</text><text font-family="geogebra-sans-serif, sans-serif" font-size="12px" font-style="normal" font-weight="normal" text-decoration="normal" dominant-baseline="alphabetic" fill="rgb(0, 0, 0)" fill-opacity="1" stroke="none" text-anchor="start" x="559" y="689">–1.5</text><text font-family="geogebra-sans-serif, sans-serif" font-size="12px" font-style="normal" font-weight="normal" text-decoration="normal" dominant-baseline="alphabetic" fill="rgb(0, 0, 0)" fill-opacity="1" stroke="none" text-anchor="start" x="658" y="689">–1</text><text font-family="geogebra-sans-serif, sans-serif" font-size="12px" font-style="normal" font-weight="normal" text-decoration="normal" dominant-baseline="alphabetic" fill="none" stroke="rgb(255, 255, 255)" stroke-linejoin="bevel" stroke-miterlimit="10" stroke-opacity="1" stroke-width="3" text-anchor="start" x="658" y="689">–1</text><text font-family="geogebra-sans-serif, sans-serif" font-size="12px" font-style="normal" font-weight="normal" text-decoration="normal" dominant-baseline="alphabetic" fill="rgb(0, 0, 0)" fill-opacity="1" stroke="none" text-anchor="start" x="658" y="689">–1</text><text font-family="geogebra-sans-serif, sans-serif" font-size="12px" font-style="normal" font-weight="normal" text-decoration="normal" dominant-baseline="alphabetic" fill="rgb(0, 0, 0)" fill-opacity="1" stroke="none" text-anchor="start" x="745" y="689">–0.5</text><text font-family="geogebra-sans-serif, sans-serif" font-size="12px" font-style="normal" font-weight="normal" text-decoration="normal" dominant-baseline="alphabetic" fill="none" stroke="rgb(255, 255, 255)" stroke-linejoin="bevel" stroke-miterlimit="10" stroke-opacity="1" stroke-width="3" text-anchor="start" x="745" y="689">–0.5</text><text font-family="geogebra-sans-serif, sans-serif" font-size="12px" font-style="normal" font-weight="normal" text-decoration="normal" dominant-baseline="alphabetic" fill="rgb(0, 0, 0)" fill-opacity="1" stroke="none" text-anchor="start" x="745" y="689">–0.5</text><text font-family="geogebra-sans-serif, sans-serif" font-size="12px" font-style="normal" font-weight="normal" text-decoration="normal" dominant-baseline="alphabetic" fill="rgb(0, 0, 0)" fill-opacity="1" stroke="none" text-anchor="start" x="934" y="689">0.5</text><text font-family="geogebra-sans-serif, sans-serif" font-size="12px" font-style="normal" font-weight="normal" text-decoration="normal" dominant-baseline="alphabetic" fill="none" stroke="rgb(255, 255, 255)" stroke-linejoin="bevel" stroke-miterlimit="10" stroke-opacity="1" stroke-width="3" text-anchor="start" x="934" y="689">0.5</text><text font-family="geogebra-sans-serif, sans-serif" font-size="12px" font-style="normal" font-weight="normal" text-decoration="normal" dominant-baseline="alphabetic" fill="rgb(0, 0, 0)" fill-opacity="1" stroke="none" text-anchor="start" x="934" y="689">0.5</text><text font-family="geogebra-sans-serif, sans-serif" font-size="12px" font-style="normal" font-weight="normal" text-decoration="normal" dominant-baseline="alphabetic" fill="rgb(0, 0, 0)" fill-opacity="1" stroke="none" text-anchor="start" x="1033" y="689">1</text><text font-family="geogebra-sans-serif, sans-serif" font-size="12px" font-style="normal" font-weight="normal" text-decoration="normal" dominant-baseline="alphabetic" fill="none" stroke="rgb(255, 255, 255)" stroke-linejoin="bevel" stroke-miterlimit="10" stroke-opacity="1" stroke-width="3" text-anchor="start" x="1033" y="689">1</text><text font-family="geogebra-sans-serif, sans-serif" font-size="12px" font-style="normal" font-weight="normal" text-decoration="normal" dominant-baseline="alphabetic" fill="rgb(0, 0, 0)" fill-opacity="1" stroke="none" text-anchor="start" x="1033" y="689">1</text><text font-family="geogebra-sans-serif, sans-serif" font-size="12px" font-style="normal" font-weight="normal" text-decoration="normal" dominant-baseline="alphabetic" fill="rgb(0, 0, 0)" fill-opacity="1" stroke="none" text-anchor="start" x="1119" y="689">1.5</text><text font-family="geogebra-sans-serif, sans-serif" font-size="12px" font-style="normal" font-weight="normal" text-decoration="normal" dominant-baseline="alphabetic" fill="none" stroke="rgb(255, 255, 255)" stroke-linejoin="bevel" stroke-miterlimit="10" stroke-opacity="1" stroke-width="3" text-anchor="start" x="1119" y="689">1.5</text><text font-family="geogebra-sans-serif, sans-serif" font-size="12px" font-style="normal" font-weight="normal" text-decoration="normal" dominant-baseline="alphabetic" fill="rgb(0, 0, 0)" fill-opacity="1" stroke="none" text-anchor="start" x="1119" y="689">1.5</text><text font-family="geogebra-sans-serif, sans-serif" font-size="12px" font-style="normal" font-weight="normal" text-decoration="normal" dominant-baseline="alphabetic" fill="rgb(0, 0, 0)" fill-opacity="1" stroke="none" text-anchor="start" x="1218" y="689">2</text><text font-family="geogebra-sans-serif, sans-serif" font-size="12px" font-style="normal" font-weight="normal" text-decoration="normal" dominant-baseline="alphabetic" fill="none" stroke="rgb(255, 255, 255)" stroke-linejoin="bevel" stroke-miterlimit="10" stroke-opacity="1" stroke-width="3" text-anchor="start" x="1218" y="689">2</text><text font-family="geogebra-sans-serif, sans-serif" font-size="12px" font-style="normal" font-weight="normal" text-decoration="normal" dominant-baseline="alphabetic" fill="rgb(0, 0, 0)" fill-opacity="1" stroke="none" text-anchor="start" x="1218" y="689">2</text><text font-family="geogebra-sans-serif, sans-serif" font-size="12px" font-style="normal" font-weight="normal" text-decoration="normal" dominant-baseline="alphabetic" fill="rgb(0, 0, 0)" fill-opacity="1" stroke="none" text-anchor="start" x="1305" y="689">2.5</text><text font-family="geogebra-sans-serif, sans-serif" font-size="12px" font-style="normal" font-weight="normal" text-decoration="normal" dominant-baseline="alphabetic" fill="none" stroke="rgb(255, 255, 255)" stroke-linejoin="bevel" stroke-miterlimit="10" stroke-opacity="1" stroke-width="3" text-anchor="start" x="1305" y="689">2.5</text><text font-family="geogebra-sans-serif, sans-serif" font-size="12px" font-style="normal" font-weight="normal" text-decoration="normal" dominant-baseline="alphabetic" fill="rgb(0, 0, 0)" fill-opacity="1" stroke="none" text-anchor="start" x="1305" y="689">2.5</text><text font-family="geogebra-sans-serif, sans-serif" font-size="12px" font-style="normal" font-weight="normal" text-decoration="normal" dominant-baseline="alphabetic" fill="rgb(0, 0, 0)" fill-opacity="1" stroke="none" text-anchor="start" x="1404" y="689">3</text><text font-family="geogebra-sans-serif, sans-serif" font-size="12px" font-style="normal" font-weight="normal" text-decoration="normal" dominant-baseline="alphabetic" fill="none" stroke="rgb(255, 255, 255)" stroke-linejoin="bevel" stroke-miterlimit="10" stroke-opacity="1" stroke-width="3" text-anchor="start" x="1404" y="689">3</text><text font-family="geogebra-sans-serif, sans-serif" font-size="12px" font-style="normal" font-weight="normal" text-decoration="normal" dominant-baseline="alphabetic" fill="rgb(0, 0, 0)" fill-opacity="1" stroke="none" text-anchor="start" x="1404" y="689">3</text><text font-family="geogebra-sans-serif, sans-serif" font-size="12px" font-style="normal" font-weight="normal" text-decoration="normal" dominant-baseline="alphabetic" fill="rgb(0, 0, 0)" fill-opacity="1" stroke="none" text-anchor="start" x="1491" y="689">3.5</text><text font-family="geogebra-sans-serif, sans-serif" font-size="12px" font-style="normal" font-weight="normal" text-decoration="normal" dominant-baseline="alphabetic" fill="none" stroke="rgb(255, 255, 255)" stroke-linejoin="bevel" stroke-miterlimit="10" stroke-opacity="1" stroke-width="3" text-anchor="start" x="1491" y="689">3.5</text><text font-family="geogebra-sans-serif, sans-serif" font-size="12px" font-style="normal" font-weight="normal" text-decoration="normal" dominant-baseline="alphabetic" fill="rgb(0, 0, 0)" fill-opacity="1" stroke="none" text-anchor="start" x="1491" y="689">3.5</text><text font-family="geogebra-sans-serif, sans-serif" font-size="12px" font-style="normal" font-weight="normal" text-decoration="normal" dominant-baseline="alphabetic" fill="rgb(0, 0, 0)" fill-opacity="1" stroke="none" text-anchor="start" x="1589" y="689">4</text><text font-family="geogebra-sans-serif, sans-serif" font-size="12px" font-style="normal" font-weight="normal" text-decoration="normal" dominant-baseline="alphabetic" fill="none" stroke="rgb(255, 255, 255)" stroke-linejoin="bevel" stroke-miterlimit="10" stroke-opacity="1" stroke-width="3" text-anchor="start" x="1589" y="689">4</text><text font-family="geogebra-sans-serif, sans-serif" font-size="12px" font-style="normal" font-weight="normal" text-decoration="normal" dominant-baseline="alphabetic" fill="rgb(0, 0, 0)" fill-opacity="1" stroke="none" text-anchor="start" x="1589" y="689">4</text><text font-family="geogebra-sans-serif, sans-serif" font-size="12px" font-style="normal" font-weight="normal" text-decoration="normal" dominant-baseline="alphabetic" fill="rgb(0, 0, 0)" fill-opacity="1" stroke="none" text-anchor="start" x="1676" y="689">4.5</text><text font-family="geogebra-sans-serif, sans-serif" font-size="12px" font-style="normal" font-weight="normal" text-decoration="normal" dominant-baseline="alphabetic" fill="none" stroke="rgb(255, 255, 255)" stroke-linejoin="bevel" stroke-miterlimit="10" stroke-opacity="1" stroke-width="3" text-anchor="start" x="1676" y="689">4.5</text><text font-family="geogebra-sans-serif, sans-serif" font-size="12px" font-style="normal" font-weight="normal" text-decoration="normal" dominant-baseline="alphabetic" fill="rgb(0, 0, 0)" fill-opacity="1" stroke="none" text-anchor="start" x="1676" y="689">4.5</text><text font-family="geogebra-sans-serif, sans-serif" font-size="12px" font-style="normal" font-weight="normal" text-decoration="normal" dominant-baseline="alphabetic" fill="rgb(0, 0, 0)" fill-opacity="1" stroke="none" text-anchor="start" x="1775" y="689">5</text><text font-family="geogebra-sans-serif, sans-serif" font-size="12px" font-style="normal" font-weight="normal" text-decoration="normal" dominant-baseline="alphabetic" fill="none" stroke="rgb(255, 255, 255)" stroke-linejoin="bevel" stroke-miterlimit="10" stroke-opacity="1" stroke-width="3" text-anchor="start" x="1775" y="689">5</text><text font-family="geogebra-sans-serif, sans-serif" font-size="12px" font-style="normal" font-weight="normal" text-decoration="normal" dominant-baseline="alphabetic" fill="rgb(0, 0, 0)" fill-opacity="1" stroke="none" text-anchor="start" x="1775" y="689">5</text><text font-family="geogebra-sans-serif, sans-serif" font-size="12px" font-style="normal" font-weight="normal" text-decoration="normal" dominant-baseline="alphabetic" fill="rgb(0, 0, 0)" fill-opacity="1" stroke="none" text-anchor="start" x="819" y="1327">–3.5</text><text font-family="geogebra-sans-serif, sans-serif" font-size="12px" font-style="normal" font-weight="normal" text-decoration="normal" dominant-baseline="alphabetic" fill="none" stroke="rgb(255, 255, 255)" stroke-linejoin="bevel" stroke-miterlimit="10" stroke-opacity="1" stroke-width="3" text-anchor="start" x="819" y="1327">–3.5</text><text font-family="geogebra-sans-serif, sans-serif" font-size="12px" font-style="normal" font-weight="normal" text-decoration="normal" dominant-baseline="alphabetic" fill="rgb(0, 0, 0)" fill-opacity="1" stroke="none" text-anchor="start" x="819" y="1327">–3.5</text><text font-family="geogebra-sans-serif, sans-serif" font-size="12px" font-style="normal" font-weight="normal" text-decoration="normal" dominant-baseline="alphabetic" fill="rgb(0, 0, 0)" fill-opacity="1" stroke="none" text-anchor="start" x="829" y="1234">–3</text><text font-family="geogebra-sans-serif, sans-serif" font-size="12px" font-style="normal" font-weight="normal" text-decoration="normal" dominant-baseline="alphabetic" fill="none" stroke="rgb(255, 255, 255)" stroke-linejoin="bevel" stroke-miterlimit="10" stroke-opacity="1" stroke-width="3" text-anchor="start" x="829" y="1234">–3</text><text font-family="geogebra-sans-serif, sans-serif" font-size="12px" font-style="normal" font-weight="normal" text-decoration="normal" dominant-baseline="alphabetic" fill="rgb(0, 0, 0)" fill-opacity="1" stroke="none" text-anchor="start" x="829" y="1234">–3</text><text font-family="geogebra-sans-serif, sans-serif" font-size="12px" font-style="normal" font-weight="normal" text-decoration="normal" dominant-baseline="alphabetic" fill="rgb(0, 0, 0)" fill-opacity="1" stroke="none" text-anchor="start" x="819" y="1142">–2.5</text><text font-family="geogebra-sans-serif, sans-serif" font-size="12px" font-style="normal" font-weight="normal" text-decoration="normal" dominant-baseline="alphabetic" fill="none" stroke="rgb(255, 255, 255)" stroke-linejoin="bevel" stroke-miterlimit="10" stroke-opacity="1" stroke-width="3" text-anchor="start" x="819" y="1142">–2.5</text><text font-family="geogebra-sans-serif, sans-serif" font-size="12px" font-style="normal" font-weight="normal" text-decoration="normal" dominant-baseline="alphabetic" fill="rgb(0, 0, 0)" fill-opacity="1" stroke="none" text-anchor="start" x="819" y="1142">–2.5</text><text font-family="geogebra-sans-serif, sans-serif" font-size="12px" font-style="normal" font-weight="normal" text-decoration="normal" dominant-baseline="alphabetic" fill="rgb(0, 0, 0)" fill-opacity="1" stroke="none" text-anchor="start" x="829" y="1049">–2</text><text font-family="geogebra-sans-serif, sans-serif" font-size="12px" font-style="normal" font-weight="normal" text-decoration="normal" dominant-baseline="alphabetic" fill="none" stroke="rgb(255, 255, 255)" stroke-linejoin="bevel" stroke-miterlimit="10" stroke-opacity="1" stroke-width="3" text-anchor="start" x="829" y="1049">–2</text><text font-family="geogebra-sans-serif, sans-serif" font-size="12px" font-style="normal" font-weight="normal" text-decoration="normal" dominant-baseline="alphabetic" fill="rgb(0, 0, 0)" fill-opacity="1" stroke="none" text-anchor="start" x="829" y="1049">–2</text><text font-family="geogebra-sans-serif, sans-serif" font-size="12px" font-style="normal" font-weight="normal" text-decoration="normal" dominant-baseline="alphabetic" fill="rgb(0, 0, 0)" fill-opacity="1" stroke="none" text-anchor="start" x="819" y="956">–1.5</text><text font-family="geogebra-sans-serif, sans-serif" font-size="12px" font-style="normal" font-weight="normal" text-decoration="normal" dominant-baseline="alphabetic" fill="none" stroke="rgb(255, 255, 255)" stroke-linejoin="bevel" stroke-miterlimit="10" stroke-opacity="1" stroke-width="3" text-anchor="start" x="819" y="956">–1.5</text><text font-family="geogebra-sans-serif, sans-serif" font-size="12px" font-style="normal" font-weight="normal" text-decoration="normal" dominant-baseline="alphabetic" fill="rgb(0, 0, 0)" fill-opacity="1" stroke="none" text-anchor="start" x="819" y="956">–1.5</text><text font-family="geogebra-sans-serif, sans-serif" font-size="12px" font-style="normal" font-weight="normal" text-decoration="normal" dominant-baseline="alphabetic" fill="rgb(0, 0, 0)" fill-opacity="1" stroke="none" text-anchor="start" x="829" y="863">–1</text><text font-family="geogebra-sans-serif, sans-serif" font-size="12px" font-style="normal" font-weight="normal" text-decoration="normal" dominant-baseline="alphabetic" fill="none" stroke="rgb(255, 255, 255)" stroke-linejoin="bevel" stroke-miterlimit="10" stroke-opacity="1" stroke-width="3" text-anchor="start" x="829" y="863">–1</text><text font-family="geogebra-sans-serif, sans-serif" font-size="12px" font-style="normal" font-weight="normal" text-decoration="normal" dominant-baseline="alphabetic" fill="rgb(0, 0, 0)" fill-opacity="1" stroke="none" text-anchor="start" x="829" y="863">–1</text><text font-family="geogebra-sans-serif, sans-serif" font-size="12px" font-style="normal" font-weight="normal" text-decoration="normal" dominant-baseline="alphabetic" fill="rgb(0, 0, 0)" fill-opacity="1" stroke="none" text-anchor="start" x="819" y="770">–0.5</text><text font-family="geogebra-sans-serif, sans-serif" font-size="12px" font-style="normal" font-weight="normal" text-decoration="normal" dominant-baseline="alphabetic" fill="none" stroke="rgb(255, 255, 255)" stroke-linejoin="bevel" stroke-miterlimit="10" stroke-opacity="1" stroke-width="3" text-anchor="start" x="819" y="770">–0.5</text><text font-family="geogebra-sans-serif, sans-serif" font-size="12px" font-style="normal" font-weight="normal" text-decoration="normal" dominant-baseline="alphabetic" fill="rgb(0, 0, 0)" fill-opacity="1" stroke="none" text-anchor="start" x="819" y="770">–0.5</text><text font-family="geogebra-sans-serif, sans-serif" font-size="12px" font-style="normal" font-weight="normal" text-decoration="normal" dominant-baseline="alphabetic" fill="rgb(0, 0, 0)" fill-opacity="1" stroke="none" text-anchor="start" x="825" y="585">0.5</text><text font-family="geogebra-sans-serif, sans-serif" font-size="12px" font-style="normal" font-weight="normal" text-decoration="normal" dominant-baseline="alphabetic" fill="none" stroke="rgb(255, 255, 255)" stroke-linejoin="bevel" stroke-miterlimit="10" stroke-opacity="1" stroke-width="3" text-anchor="start" x="825" y="585">0.5</text><text font-family="geogebra-sans-serif, sans-serif" font-size="12px" font-style="normal" font-weight="normal" text-decoration="normal" dominant-baseline="alphabetic" fill="rgb(0, 0, 0)" fill-opacity="1" stroke="none" text-anchor="start" x="825" y="585">0.5</text><text font-family="geogebra-sans-serif, sans-serif" font-size="12px" font-style="normal" font-weight="normal" text-decoration="normal" dominant-baseline="alphabetic" fill="rgb(0, 0, 0)" fill-opacity="1" stroke="none" text-anchor="start" x="835" y="492">1</text><text font-family="geogebra-sans-serif, sans-serif" font-size="12px" font-style="normal" font-weight="normal" text-decoration="normal" dominant-baseline="alphabetic" fill="none" stroke="rgb(255, 255, 255)" stroke-linejoin="bevel" stroke-miterlimit="10" stroke-opacity="1" stroke-width="3" text-anchor="start" x="835" y="492">1</text><text font-family="geogebra-sans-serif, sans-serif" font-size="12px" font-style="normal" font-weight="normal" text-decoration="normal" dominant-baseline="alphabetic" fill="rgb(0, 0, 0)" fill-opacity="1" stroke="none" text-anchor="start" x="835" y="492">1</text><text font-family="geogebra-sans-serif, sans-serif" font-size="12px" font-style="normal" font-weight="normal" text-decoration="normal" dominant-baseline="alphabetic" fill="rgb(0, 0, 0)" fill-opacity="1" stroke="none" text-anchor="start" x="825" y="399">1.5</text><text font-family="geogebra-sans-serif, sans-serif" font-size="12px" font-style="normal" font-weight="normal" text-decoration="normal" dominant-baseline="alphabetic" fill="none" stroke="rgb(255, 255, 255)" stroke-linejoin="bevel" stroke-miterlimit="10" stroke-opacity="1" stroke-width="3" text-anchor="start" x="825" y="399">1.5</text><text font-family="geogebra-sans-serif, sans-serif" font-size="12px" font-style="normal" font-weight="normal" text-decoration="normal" dominant-baseline="alphabetic" fill="rgb(0, 0, 0)" fill-opacity="1" stroke="none" text-anchor="start" x="825" y="399">1.5</text><text font-family="geogebra-sans-serif, sans-serif" font-size="12px" font-style="normal" font-weight="normal" text-decoration="normal" dominant-baseline="alphabetic" fill="rgb(0, 0, 0)" fill-opacity="1" stroke="none" text-anchor="start" x="835" y="306">2</text><text font-family="geogebra-sans-serif, sans-serif" font-size="12px" font-style="normal" font-weight="normal" text-decoration="normal" dominant-baseline="alphabetic" fill="none" stroke="rgb(255, 255, 255)" stroke-linejoin="bevel" stroke-miterlimit="10" stroke-opacity="1" stroke-width="3" text-anchor="start" x="835" y="306">2</text><text font-family="geogebra-sans-serif, sans-serif" font-size="12px" font-style="normal" font-weight="normal" text-decoration="normal" dominant-baseline="alphabetic" fill="rgb(0, 0, 0)" fill-opacity="1" stroke="none" text-anchor="start" x="835" y="306">2</text><text font-family="geogebra-sans-serif, sans-serif" font-size="12px" font-style="normal" font-weight="normal" text-decoration="normal" dominant-baseline="alphabetic" fill="rgb(0, 0, 0)" fill-opacity="1" stroke="none" text-anchor="start" x="825" y="214">2.5</text><text font-family="geogebra-sans-serif, sans-serif" font-size="12px" font-style="normal" font-weight="normal" text-decoration="normal" dominant-baseline="alphabetic" fill="none" stroke="rgb(255, 255, 255)" stroke-linejoin="bevel" stroke-miterlimit="10" stroke-opacity="1" stroke-width="3" text-anchor="start" x="825" y="214">2.5</text><text font-family="geogebra-sans-serif, sans-serif" font-size="12px" font-style="normal" font-weight="normal" text-decoration="normal" dominant-baseline="alphabetic" fill="rgb(0, 0, 0)" fill-opacity="1" stroke="none" text-anchor="start" x="825" y="214">2.5</text><text font-family="geogebra-sans-serif, sans-serif" font-size="12px" font-style="normal" font-weight="normal" text-decoration="normal" dominant-baseline="alphabetic" fill="rgb(0, 0, 0)" fill-opacity="1" stroke="none" text-anchor="start" x="835" y="121">3</text><text font-family="geogebra-sans-serif, sans-serif" font-size="12px" font-style="normal" font-weight="normal" text-decoration="normal" dominant-baseline="alphabetic" fill="none" stroke="rgb(255, 255, 255)" stroke-linejoin="bevel" stroke-miterlimit="10" stroke-opacity="1" stroke-width="3" text-anchor="start" x="835" y="121">3</text><text font-family="geogebra-sans-serif, sans-serif" font-size="12px" font-style="normal" font-weight="normal" text-decoration="normal" dominant-baseline="alphabetic" fill="rgb(0, 0, 0)" fill-opacity="1" stroke="none" text-anchor="start" x="835" y="121">3</text><text font-family="geogebra-sans-serif, sans-serif" font-size="12px" font-style="normal" font-weight="normal" text-decoration="normal" dominant-baseline="alphabetic" fill="rgb(0, 0, 0)" fill-opacity="1" stroke="none" text-anchor="start" x="825" y="28">3.5</text><text font-family="geogebra-sans-serif, sans-serif" font-size="12px" font-style="normal" font-weight="normal" text-decoration="normal" dominant-baseline="alphabetic" fill="none" stroke="rgb(255, 255, 255)" stroke-linejoin="bevel" stroke-miterlimit="10" stroke-opacity="1" stroke-width="3" text-anchor="start" x="825" y="28">3.5</text><text font-family="geogebra-sans-serif, sans-serif" font-size="12px" font-style="normal" font-weight="normal" text-decoration="normal" dominant-baseline="alphabetic" fill="rgb(0, 0, 0)" fill-opacity="1" stroke="none" text-anchor="start" x="825" y="28">3.5</text><text font-family="geogebra-sans-serif, sans-serif" font-size="12px" font-style="normal" font-weight="normal" text-decoration="normal" dominant-baseline="alphabetic" fill="rgb(0, 0, 0)" fill-opacity="1" stroke="none" text-anchor="start" x="835" y="689">0</text><text font-family="geogebra-sans-serif, sans-serif" font-size="12px" font-style="normal" font-weight="normal" text-decoration="normal" dominant-baseline="alphabetic" fill="none" stroke="rgb(255, 255, 255)" stroke-linejoin="bevel" stroke-miterlimit="10" stroke-opacity="1" stroke-width="3" text-anchor="start" x="835" y="689">0</text><text font-family="geogebra-sans-serif, sans-serif" font-size="12px" font-style="normal" font-weight="normal" text-decoration="normal" dominant-baseline="alphabetic" fill="rgb(0, 0, 0)" fill-opacity="1" stroke="none" text-anchor="start" x="835" y="689">0</text><path fill="none" stroke="rgb(46, 125, 50)" stroke-linecap="round" stroke-linejoin="round" stroke-miterlimit="10" stroke-opacity="0.8" stroke-width="2.5" d="M 0 489.202 L 3.66406 489.736 L 7.32813 490.342 L 10.9922 491.019 L 14.6563 491.767 L 18.3203 492.585 L 21.9844 493.474 L 25.6484 494.433 L 29.3125 495.462 L 32.9766 496.56 L 36.6406 497.726 L 40.3047 498.961 L 43.9688 500.264 L 47.6328 501.634 L 51.2969 503.071 L 54.9609 504.574 L 58.625 506.142 L 62.2891 507.776 L 65.9531 509.474 L 69.6172 511.236 L 73.2813 513.061 L 76.9453 514.949 L 80.6094 516.898 L 84.2734 518.908 L 87.9375 520.978 L 91.6016 523.107 L 95.2656 525.295 L 98.9297 527.54 L 102.594 529.842 L 106.258 532.2 L 109.922 534.612 L 113.586 537.079 L 117.25 539.599 L 120.914 542.17 L 124.578 544.793 L 128.242 547.466 L 131.906 550.187 L 135.57 552.957 L 139.234 555.773 L 142.898 558.635 L 146.563 561.542 L 150.227 564.492 L 153.891 567.484 L 157.555 570.518 L 161.219 573.591 L 164.883 576.703 L 168.547 579.853 L 172.211 583.039 L 175.875 586.261 L 179.539 589.516 L 183.203 592.803 L 186.867 596.122 L 190.531 599.471 L 194.195 602.849 L 197.859 606.254 L 201.523 609.685 L 205.188 613.141 L 208.852 616.62 L 212.516 620.121 L 216.18 623.643 L 219.844 627.184 L 223.508 630.742 L 227.172 634.318 L 230.836 637.908 L 234.5 641.513 L 238.164 645.129 L 241.828 648.757 L 245.492 652.393 L 249.156 656.039 L 252.82 659.69 L 256.484 663.347 L 260.148 667.008 L 263.813 670.671 L 267.477 674.335 L 271.141 677.998 L 274.805 681.66 L 278.469 685.318 L 282.133 688.972 L 285.797 692.619 L 289.461 696.259 L 293.125 699.889 L 296.789 703.51 L 300.453 707.118 L 304.117 710.713 L 307.781 714.294 L 311.445 717.858 L 315.109 721.405 L 318.773 724.933 L 322.438 728.441 L 326.102 731.928 L 329.766 735.391 L 333.43 738.83 L 337.094 742.244 L 340.758 745.631 L 344.422 748.989 L 348.086 752.318 L 351.75 755.616 L 355.414 758.882 L 359.078 762.114 L 362.742 765.312 L 366.406 768.474 L 370.07 771.598 L 373.734 774.685 L 377.398 777.731 L 381.063 780.737 L 384.727 783.701 L 388.391 786.622 L 392.055 789.499 L 395.719 792.33 L 399.383 795.115 L 403.047 797.852 L 406.711 800.541 L 410.375 803.18 L 414.039 805.769 L 417.703 808.305 L 421.367 810.789 L 425.031 813.22 L 428.695 815.596 L 432.359 817.916 L 436.023 820.18 L 439.688 822.386 L 443.352 824.534 L 447.016 826.624 L 450.68 828.653 L 454.344 830.622 L 458.008 832.53 L 461.672 834.375 L 465.336 836.158 L 469 837.877 L 472.664 839.532 L 476.328 841.122 L 479.992 842.647 L 483.656 844.105 L 487.32 845.497 L 490.984 846.822 L 494.648 848.079 L 498.313 849.268 L 501.977 850.388 L 505.641 851.439 L 509.305 852.421 L 512.969 853.333 L 516.633 854.174 L 520.297 854.945 L 523.961 855.645 L 527.625 856.274 L 531.289 856.832 L 534.953 857.318 L 538.617 857.733 L 542.281 858.075 L 545.945 858.345 L 549.609 858.543 L 553.273 858.669 L 556.938 858.723 L 560.602 858.704 L 564.266 858.613 L 567.93 858.45 L 571.594 858.214 L 575.258 857.907 L 578.922 857.527 L 582.586 857.075 L 586.25 856.552 L 589.914 855.958 L 593.578 855.292 L 597.242 854.555 L 600.906 853.747 L 604.57 852.869 L 608.234 851.921 L 611.898 850.903 L 615.563 849.816 L 619.227 848.661 L 622.891 847.436 L 626.555 846.144 L 630.219 844.785 L 633.883 843.358 L 637.547 841.865 L 641.211 840.307 L 644.875 838.683 L 648.539 836.995 L 652.203 835.243 L 655.867 833.428 L 659.531 831.55 L 663.195 829.61 L 666.859 827.61 L 670.523 825.549 L 674.188 823.429 L 677.852 821.251 L 681.516 819.015 L 685.18 816.721 L 688.844 814.372 L 692.508 811.968 L 696.172 809.51 L 699.836 806.998 L 703.5 804.435 L 707.164 801.82 L 710.828 799.155 L 714.492 796.441 L 718.156 793.679 L 721.82 790.87 L 725.484 788.015 L 729.148 785.115 L 732.813 782.172 L 736.477 779.186 L 740.141 776.159 L 743.805 773.092 L 747.469 769.985 L 751.133 766.841 L 754.797 763.661 L 758.461 760.445 L 762.125 757.195 L 765.789 753.912 L 769.453 750.598 L 773.117 747.254 L 776.781 743.881 L 780.445 740.48 L 784.109 737.053 L 787.773 733.601 L 791.438 730.125 L 795.102 726.627 L 798.766 723.109 L 802.43 719.571 L 806.094 716.014 L 809.758 712.442 L 813.422 708.853 L 817.086 705.251 L 820.75 701.636 L 824.414 698.011 L 828.078 694.375 L 831.742 690.731 L 835.406 687.081 L 839.07 683.424 L 842.734 679.764 L 846.398 676.101 L 850.063 672.438 L 853.727 668.774 L 857.391 665.112 L 861.055 661.453 L 864.719 657.799 L 868.383 654.15 L 872.047 650.509 L 875.711 646.877 L 879.375 643.255 L 883.039 639.645 L 886.703 636.047 L 890.367 632.465 L 894.031 628.898 L 897.695 625.348 L 901.359 621.817 L 905.023 618.305 L 908.688 614.815 L 912.352 611.348 L 916.016 607.905 L 919.68 604.487 L 923.344 601.096 L 927.008 597.733 L 930.672 594.4 L 934.336 591.097 L 938 587.826 L 941.664 584.588 L 945.328 581.385 L 948.992 578.218 L 952.656 575.087 L 956.32 571.995 L 959.984 568.942 L 963.648 565.929 L 967.313 562.959 L 970.977 560.031 L 974.641 557.147 L 978.305 554.309 L 981.969 551.517 L 985.633 548.772 L 989.297 546.076 L 992.961 543.429 L 996.625 540.832 L 1000.29 538.287 L 1003.95 535.795 L 1007.62 533.356 L 1011.28 530.972 L 1014.95 528.643 L 1018.61 526.37 L 1022.27 524.155 L 1025.94 521.997 L 1029.6 519.898 L 1033.27 517.86 L 1036.93 515.881 L 1040.59 513.964 L 1044.26 512.109 L 1047.92 510.316 L 1051.59 508.587 L 1055.25 506.922 L 1058.91 505.322 L 1062.58 503.787 L 1066.24 502.318 L 1069.91 500.916 L 1073.57 499.581 L 1077.23 498.313 L 1080.9 497.113 L 1084.56 495.982 L 1088.23 494.921 L 1091.89 493.928 L 1095.55 493.005 L 1099.22 492.153 L 1102.88 491.371 L 1106.55 490.659 L 1110.21 490.019 L 1113.88 489.45 L 1117.54 488.953 L 1121.2 488.527 L 1124.87 488.174 L 1128.53 487.892 L 1132.2 487.683 L 1135.86 487.546 L 1139.52 487.481 L 1143.19 487.488 L 1146.85 487.568 L 1150.52 487.72 L 1154.18 487.944 L 1157.84 488.241 L 1161.51 488.609 L 1165.17 489.049 L 1168.84 489.561 L 1172.5 490.145 L 1176.16 490.8 L 1179.83 491.526 L 1183.49 492.322 L 1187.16 493.189 L 1190.82 494.126 L 1194.48 495.133 L 1198.15 496.209 L 1201.81 497.354 L 1205.48 498.568 L 1209.14 499.849 L 1212.8 501.199 L 1216.47 502.615 L 1220.13 504.097 L 1223.8 505.645 L 1227.46 507.259 L 1231.13 508.937 L 1234.79 510.679 L 1238.45 512.485 L 1242.12 514.353 L 1245.78 516.283 L 1249.45 518.274 L 1253.11 520.325 L 1256.77 522.436 L 1260.44 524.605 L 1264.1 526.832 L 1267.77 529.117 L 1271.43 531.457 L 1275.09 533.853 L 1278.76 536.303 L 1282.42 538.806 L 1286.09 541.361 L 1289.75 543.968 L 1293.41 546.625 L 1297.08 549.332 L 1300.74 552.087 L 1304.41 554.888 L 1308.07 557.736 L 1311.73 560.629 L 1315.4 563.566 L 1319.06 566.545 L 1322.73 569.566 L 1326.39 572.627 L 1330.05 575.727 L 1333.72 578.865 L 1337.38 582.04 L 1341.05 585.251 L 1344.71 588.495 L 1348.38 591.773 L 1352.04 595.082 L 1355.7 598.422 L 1359.37 601.791 L 1363.03 605.187 L 1366.7 608.61 L 1370.36 612.059 L 1374.02 615.531 L 1377.69 619.025 L 1381.35 622.54 L 1385.02 626.076 L 1388.68 629.629 L 1392.34 633.199 L 1396.01 636.785 L 1399.67 640.385 L 1403.34 643.998 L 1407 647.623 L 1410.66 651.257 L 1414.33 654.899 L 1417.99 658.549 L 1421.66 662.204 L 1425.32 665.864 L 1428.98 669.526 L 1432.65 673.19 L 1436.31 676.854 L 1439.98 680.516 L 1443.64 684.176 L 1447.3 687.831 L 1450.97 691.48 L 1454.63 695.123 L 1458.3 698.756 L 1461.96 702.38 L 1465.63 705.992 L 1469.29 709.592 L 1472.95 713.177 L 1476.62 716.747 L 1480.28 720.299 L 1483.95 723.833 L 1487.61 727.348 L 1491.27 730.841 L 1494.94 734.312 L 1498.6 737.759 L 1502.27 741.181 L 1505.93 744.576 L 1509.59 747.943 L 1513.26 751.281 L 1516.92 754.589 L 1520.59 757.865 L 1524.25 761.108 L 1527.91 764.317 L 1531.58 767.49 L 1535.24 770.627 L 1538.91 773.725 L 1542.57 776.784 L 1546.23 779.803 L 1549.9 782.78 L 1553.56 785.715 L 1557.23 788.605 L 1560.89 791.451 L 1564.55 794.25 L 1568.22 797.003 L 1571.88 799.707 L 1575.55 802.361 L 1579.21 804.966 L 1582.88 807.519 L 1586.54 810.019 L 1590.2 812.466 L 1593.87 814.859 L 1597.53 817.197 L 1601.2 819.479 L 1604.86 821.703 L 1608.52 823.87 L 1612.19 825.978 L 1615.85 828.026 L 1619.52 830.014 L 1623.18 831.941 L 1626.84 833.806 L 1630.51 835.608 L 1634.17 837.347 L 1637.84 839.022 L 1641.5 840.632 L 1645.16 842.178 L 1648.83 843.657 L 1652.49 845.07 L 1656.16 846.415 L 1659.82 847.693 L 1663.48 848.904 L 1667.15 850.045 L 1670.81 851.118 L 1674.48 852.122 L 1678.14 853.055 L 1681.8 853.919 L 1685.47 854.712 L 1689.13 855.434 L 1692.8 856.086 L 1696.46 856.666 L 1700.13 857.174 L 1703.79 857.611 L 1707.45 857.976 L 1711.12 858.269 L 1714.78 858.489 L 1718.45 858.638 L 1722.11 858.714 L 1725.77 858.718 L 1729.44 858.649 L 1733.1 858.509 L 1736.77 858.296 L 1740.43 858.01 L 1744.09 857.653 L 1747.76 857.224 L 1751.42 856.723 L 1755.09 856.151 L 1758.75 855.507 L 1762.41 854.793 L 1766.08 854.007 L 1769.74 853.151 L 1773.41 852.225 L 1777.07 851.229 L 1780.73 850.163 L 1784.4 849.029 L 1788.06 847.826 L 1791.73 846.555 L 1795.39 845.217 L 1799.05 843.811 L 1802.72 842.339 L 1806.38 840.801 L 1810.05 839.197 L 1813.71 837.529 L 1817.38 835.797 L 1821.04 834.001 L 1824.7 832.143 L 1828.37 830.223 L 1832.03 828.241 L 1835.7 826.199 L 1839.36 824.098 L 1843.02 821.938 L 1846.69 819.719 L 1850.35 817.444 L 1854.02 815.112 L 1857.68 812.725 L 1861.34 810.283 L 1865.01 807.788 L 1868.67 805.241 L 1872.34 802.642 L 1876 799.993" paint-order="fill stroke markers" /><text font-family="geogebra-sans-serif, sans-serif" font-size="16px" font-style="normal" font-weight="normal" text-decoration="normal" dominant-baseline="alphabetic" fill="rgb(46, 125, 50)" fill-opacity="1" stroke="none" text-anchor="start" x="5" y="504">f</text><text font-family="geogebra-sans-serif, sans-serif" font-size="16px" font-style="normal" font-weight="normal" text-decoration="normal" dominant-baseline="alphabetic" fill="none" stroke="rgb(255, 255, 255)" stroke-linejoin="bevel" stroke-miterlimit="10" stroke-opacity="1" stroke-width="3" text-anchor="start" x="5" y="504">f</text><text font-family="geogebra-sans-serif, sans-serif" font-size="16px" font-style="normal" font-weight="normal" text-decoration="normal" dominant-baseline="alphabetic" fill="rgb(46, 125, 50)" fill-opacity="1" stroke="none" text-anchor="start" x="5" y="504">f</text><path fill="none" stroke="rgb(21, 101, 192)" stroke-linecap="round" stroke-linejoin="round" stroke-miterlimit="10" stroke-opacity="0.8" stroke-width="2.5" d="M 0 698.359 L 3.66406 701.983 L 7.32813 705.597 L 10.9922 709.198 L 14.6563 712.785 L 18.3203 716.356 L 21.9844 719.911 L 25.6484 723.447 L 29.3125 726.964 L 32.9766 730.459 L 36.6406 733.933 L 40.3047 737.382 L 43.9688 740.807 L 47.6328 744.205 L 51.2969 747.576 L 54.9609 750.917 L 58.625 754.228 L 62.2891 757.508 L 65.9531 760.755 L 69.6172 763.967 L 73.2813 767.144 L 76.9453 770.285 L 80.6094 773.387 L 84.2734 776.451 L 87.9375 779.474 L 91.6016 782.456 L 95.2656 785.395 L 98.9297 788.291 L 102.594 791.141 L 106.258 793.946 L 109.922 796.703 L 113.586 799.413 L 117.25 802.073 L 120.914 804.683 L 124.578 807.241 L 128.242 809.748 L 131.906 812.201 L 135.57 814.6 L 139.234 816.944 L 142.898 819.231 L 146.563 821.462 L 150.227 823.635 L 153.891 825.75 L 157.555 827.804 L 161.219 829.799 L 164.883 831.733 L 168.547 833.604 L 172.211 835.414 L 175.875 837.16 L 179.539 838.842 L 183.203 840.459 L 186.867 842.011 L 190.531 843.498 L 194.195 844.918 L 197.859 846.271 L 201.523 847.557 L 205.188 848.774 L 208.852 849.924 L 212.516 851.004 L 216.18 852.015 L 219.844 852.956 L 223.508 853.828 L 227.172 854.628 L 230.836 855.359 L 234.5 856.018 L 238.164 856.606 L 241.828 857.122 L 245.492 857.566 L 249.156 857.939 L 252.82 858.24 L 256.484 858.469 L 260.148 858.625 L 263.813 858.709 L 267.477 858.721 L 271.141 858.66 L 274.805 858.528 L 278.469 858.322 L 282.133 858.045 L 285.797 857.696 L 289.461 857.275 L 293.125 856.782 L 296.789 856.217 L 300.453 855.581 L 304.117 854.874 L 307.781 854.096 L 311.445 853.248 L 315.109 852.33 L 318.773 851.341 L 322.438 850.284 L 326.102 849.157 L 329.766 847.961 L 333.43 846.698 L 337.094 845.367 L 340.758 843.968 L 344.422 842.503 L 348.086 840.972 L 351.75 839.376 L 355.414 837.715 L 359.078 835.99 L 362.742 834.201 L 366.406 832.35 L 370.07 830.436 L 373.734 828.461 L 377.398 826.426 L 381.063 824.331 L 384.727 822.177 L 388.391 819.965 L 392.055 817.696 L 395.719 815.37 L 399.383 812.989 L 403.047 810.554 L 406.711 808.064 L 410.375 805.523 L 414.039 802.929 L 417.703 800.286 L 421.367 797.592 L 425.031 794.85 L 428.695 792.061 L 432.359 789.225 L 436.023 786.344 L 439.688 783.419 L 443.352 780.451 L 447.016 777.441 L 450.68 774.391 L 454.344 771.301 L 458.008 768.172 L 461.672 765.007 L 465.336 761.806 L 469 758.57 L 472.664 755.301 L 476.328 752 L 479.992 748.668 L 483.656 745.307 L 487.32 741.918 L 490.984 738.502 L 494.648 735.06 L 498.313 731.594 L 501.977 728.106 L 505.641 724.596 L 509.305 721.066 L 512.969 717.517 L 516.633 713.951 L 520.297 710.369 L 523.961 706.773 L 527.625 703.163 L 531.289 699.542 L 534.953 695.91 L 538.617 692.27 L 542.281 688.622 L 545.945 684.968 L 549.609 681.309 L 553.273 677.647 L 556.938 673.983 L 560.602 670.319 L 564.266 666.657 L 567.93 662.996 L 571.594 659.34 L 575.258 655.689 L 578.922 652.044 L 582.586 648.408 L 586.25 644.782 L 589.914 641.167 L 593.578 637.564 L 597.242 633.974 L 600.906 630.401 L 604.57 626.843 L 608.234 623.304 L 611.898 619.784 L 615.563 616.285 L 619.227 612.808 L 622.891 609.355 L 626.555 605.926 L 630.219 602.524 L 633.883 599.149 L 637.547 595.803 L 641.211 592.487 L 644.875 589.202 L 648.539 585.95 L 652.203 582.732 L 655.867 579.55 L 659.531 576.403 L 663.195 573.295 L 666.859 570.225 L 670.523 567.195 L 674.188 564.207 L 677.852 561.261 L 681.516 558.359 L 685.18 555.501 L 688.844 552.689 L 692.508 549.924 L 696.172 547.207 L 699.836 544.539 L 703.5 541.921 L 707.164 539.355 L 710.828 536.84 L 714.492 534.379 L 718.156 531.971 L 721.82 529.619 L 725.484 527.322 L 729.148 525.082 L 732.813 522.9 L 736.477 520.777 L 740.141 518.712 L 743.805 516.708 L 747.469 514.765 L 751.133 512.884 L 754.797 511.065 L 758.461 509.309 L 762.125 507.617 L 765.789 505.989 L 769.453 504.427 L 773.117 502.93 L 776.781 501.499 L 780.445 500.136 L 784.109 498.84 L 787.773 497.611 L 791.438 496.451 L 795.102 495.36 L 798.766 494.338 L 802.43 493.386 L 806.094 492.504 L 809.758 491.692 L 813.422 490.951 L 817.086 490.281 L 820.75 489.682 L 824.414 489.154 L 828.078 488.698 L 831.742 488.314 L 835.406 488.002 L 839.07 487.762 L 842.734 487.595 L 846.398 487.499 L 850.063 487.476 L 853.727 487.525 L 857.391 487.647 L 861.055 487.841 L 864.719 488.107 L 868.383 488.445 L 872.047 488.855 L 875.711 489.337 L 879.375 489.89 L 883.039 490.515 L 886.703 491.211 L 890.367 491.977 L 894.031 492.815 L 897.695 493.722 L 901.359 494.7 L 905.023 495.747 L 908.688 496.863 L 912.352 498.048 L 916.016 499.301 L 919.68 500.621 L 923.344 502.009 L 927.008 503.464 L 930.672 504.984 L 934.336 506.57 L 938 508.221 L 941.664 509.937 L 945.328 511.715 L 948.992 513.557 L 952.656 515.461 L 956.32 517.426 L 959.984 519.452 L 963.648 521.538 L 967.313 523.683 L 970.977 525.886 L 974.641 528.146 L 978.305 530.463 L 981.969 532.835 L 985.633 535.263 L 989.297 537.743 L 992.961 540.277 L 996.625 542.862 L 1000.29 545.498 L 1003.95 548.184 L 1007.62 550.918 L 1011.28 553.701 L 1014.95 556.529 L 1018.61 559.403 L 1022.27 562.321 L 1025.94 565.283 L 1029.6 568.286 L 1033.27 571.33 L 1036.93 574.414 L 1040.59 577.537 L 1044.26 580.696 L 1047.92 583.892 L 1051.59 587.122 L 1055.25 590.386 L 1058.91 593.682 L 1062.58 597.009 L 1066.24 600.366 L 1069.91 603.751 L 1073.57 607.163 L 1077.23 610.601 L 1080.9 614.063 L 1084.56 617.548 L 1088.23 621.055 L 1091.89 624.582 L 1095.55 628.128 L 1099.22 631.691 L 1102.88 635.271 L 1106.55 638.865 L 1110.21 642.473 L 1113.88 646.092 L 1117.54 649.722 L 1121.2 653.361 L 1124.87 657.008 L 1128.53 660.661 L 1132.2 664.32 L 1135.86 667.981 L 1139.52 671.644 L 1143.19 675.308 L 1146.85 678.971 L 1150.52 682.632 L 1154.18 686.289 L 1157.84 689.941 L 1161.51 693.587 L 1165.17 697.224 L 1168.84 700.852 L 1172.5 704.47 L 1176.16 708.075 L 1179.83 711.666 L 1183.49 715.242 L 1187.16 718.802 L 1190.82 722.345 L 1194.48 725.867 L 1198.15 729.37 L 1201.81 732.85 L 1205.48 736.307 L 1209.14 739.74 L 1212.8 743.147 L 1216.47 746.526 L 1220.13 749.877 L 1223.8 753.197 L 1227.46 756.487 L 1231.13 759.744 L 1234.79 762.967 L 1238.45 766.156 L 1242.12 769.308 L 1245.78 772.422 L 1249.45 775.498 L 1253.11 778.534 L 1256.77 781.529 L 1260.44 784.482 L 1264.1 787.391 L 1267.77 790.256 L 1271.43 793.075 L 1275.09 795.847 L 1278.76 798.572 L 1282.42 801.247 L 1286.09 803.873 L 1289.75 806.448 L 1293.41 808.971 L 1297.08 811.44 L 1300.74 813.856 L 1304.41 816.218 L 1308.07 818.523 L 1311.73 820.772 L 1315.4 822.963 L 1319.06 825.096 L 1322.73 827.169 L 1326.39 829.183 L 1330.05 831.135 L 1333.72 833.026 L 1337.38 834.855 L 1341.05 836.621 L 1344.71 838.323 L 1348.38 839.961 L 1352.04 841.534 L 1355.7 843.041 L 1359.37 844.482 L 1363.03 845.856 L 1366.7 847.162 L 1370.36 848.401 L 1374.02 849.572 L 1377.69 850.674 L 1381.35 851.707 L 1385.02 852.67 L 1388.68 853.563 L 1392.34 854.386 L 1396.01 855.138 L 1399.67 855.819 L 1403.34 856.43 L 1407 856.968 L 1410.66 857.435 L 1414.33 857.831 L 1417.99 858.154 L 1421.66 858.405 L 1425.32 858.584 L 1428.98 858.691 L 1432.65 858.725 L 1436.31 858.687 L 1439.98 858.577 L 1443.64 858.394 L 1447.3 858.14 L 1450.97 857.813 L 1454.63 857.414 L 1458.3 856.943 L 1461.96 856.401 L 1465.63 855.788 L 1469.29 855.103 L 1472.95 854.347 L 1476.62 853.521 L 1480.28 852.624 L 1483.95 851.657 L 1487.61 850.621 L 1491.27 849.516 L 1494.94 848.342 L 1498.6 847.1 L 1502.27 845.789 L 1505.93 844.412 L 1509.59 842.968 L 1513.26 841.458 L 1516.92 839.882 L 1520.59 838.241 L 1524.25 836.536 L 1527.91 834.767 L 1531.58 832.935 L 1535.24 831.041 L 1538.91 829.085 L 1542.57 827.068 L 1546.23 824.992 L 1549.9 822.856 L 1553.56 820.662 L 1557.23 818.411 L 1560.89 816.102 L 1564.55 813.739 L 1568.22 811.32 L 1571.88 808.848 L 1575.55 806.322 L 1579.21 803.745 L 1582.88 801.117 L 1586.54 798.439 L 1590.2 795.712 L 1593.87 792.937 L 1597.53 790.116 L 1601.2 787.249 L 1604.86 784.337 L 1608.52 781.383 L 1612.19 778.386 L 1615.85 775.348 L 1619.52 772.27 L 1623.18 769.153 L 1626.84 765.999 L 1630.51 762.809 L 1634.17 759.584 L 1637.84 756.326 L 1641.5 753.034 L 1645.16 749.712 L 1648.83 746.36 L 1652.49 742.979 L 1656.16 739.571 L 1659.82 736.138 L 1663.48 732.679 L 1667.15 729.198 L 1670.81 725.694 L 1674.48 722.17 L 1678.14 718.627 L 1681.8 715.067 L 1685.47 711.489 L 1689.13 707.897 L 1692.8 704.292 L 1696.46 700.674 L 1700.13 697.045 L 1703.79 693.407 L 1707.45 689.762 L 1711.12 686.109 L 1714.78 682.452 L 1718.45 678.791 L 1722.11 675.128 L 1725.77 671.464 L 1729.44 667.8 L 1733.1 664.139 L 1736.77 660.481 L 1740.43 656.828 L 1744.09 653.182 L 1747.76 649.543 L 1751.42 645.913 L 1755.09 642.294 L 1758.75 638.687 L 1762.41 635.094 L 1766.08 631.515 L 1769.74 627.952 L 1773.41 624.407 L 1777.07 620.881 L 1780.73 617.376 L 1784.4 613.892 L 1788.06 610.431 L 1791.73 606.994 L 1795.39 603.584 L 1799.05 600.2 L 1802.72 596.845 L 1806.38 593.519 L 1810.05 590.225 L 1813.71 586.962 L 1817.38 583.734 L 1821.04 580.54 L 1824.7 577.382 L 1828.37 574.261 L 1832.03 571.179 L 1835.7 568.137 L 1839.36 565.136 L 1843.02 562.176 L 1846.69 559.26 L 1850.35 556.389 L 1854.02 553.562 L 1857.68 550.783 L 1861.34 548.051 L 1865.01 545.367 L 1868.67 542.734 L 1872.34 540.151 L 1876 537.62" paint-order="fill stroke markers" /><text font-family="geogebra-sans-serif, sans-serif" font-size="16px" font-style="normal" font-weight="normal" text-decoration="normal" dominant-baseline="alphabetic" fill="rgb(21, 101, 192)" fill-opacity="1" stroke="none" text-anchor="start" x="5" y="716">g</text><text font-family="geogebra-sans-serif, sans-serif" font-size="16px" font-style="normal" font-weight="normal" text-decoration="normal" dominant-baseline="alphabetic" fill="none" stroke="rgb(255, 255, 255)" stroke-linejoin="bevel" stroke-miterlimit="10" stroke-opacity="1" stroke-width="3" text-anchor="start" x="5" y="716">g</text><text font-family="geogebra-sans-serif, sans-serif" font-size="16px" font-style="normal" font-weight="normal" text-decoration="normal" dominant-baseline="alphabetic" fill="rgb(21, 101, 192)" fill-opacity="1" stroke="none" text-anchor="start" x="5" y="716">g</text><path fill="none" stroke="rgb(0, 0, 0)" stroke-linecap="round" stroke-linejoin="round" stroke-miterlimit="10" stroke-opacity="0.698039" stroke-width="2.5" d="M 995.19 541.843 L 992.848 656.104" paint-order="fill stroke markers" /><path fill="rgb(0, 0, 0)" fill-opacity="0.698039" fill-rule="evenodd" stroke="none" d="M 992.5 673.1 L 988.599 656.016 L 997.097 656.191 Z" paint-order="stroke fill markers" /><text font-family="geogebra-sans-serif, sans-serif" font-size="16px" font-style="normal" font-weight="normal" text-decoration="normal" dominant-baseline="alphabetic" fill="rgb(0, 0, 0)" fill-opacity="1" stroke="none" text-anchor="start" x="998" y="607">u</text><text font-family="geogebra-sans-serif, sans-serif" font-size="16px" font-style="normal" font-weight="normal" text-decoration="normal" dominant-baseline="alphabetic" fill="none" stroke="rgb(255, 255, 255)" stroke-linejoin="bevel" stroke-miterlimit="10" stroke-opacity="1" stroke-width="3" text-anchor="start" x="998" y="607">u</text><text font-family="geogebra-sans-serif, sans-serif" font-size="16px" font-style="normal" font-weight="normal" text-decoration="normal" dominant-baseline="alphabetic" fill="rgb(0, 0, 0)" fill-opacity="1" stroke="none" text-anchor="start" x="998" y="607">u</text><path fill="none" stroke="rgb(0, 0, 0)" stroke-linecap="round" stroke-linejoin="round" stroke-miterlimit="10" stroke-opacity="0.698039" stroke-width="2.5" d="M 707.5 539.122 L 708.906 792" paint-order="fill stroke markers" /><path fill="rgb(0, 0, 0)" fill-opacity="0.698039" fill-rule="evenodd" stroke="none" d="M 709 809 L 704.656 792.024 L 713.155 791.977 Z" paint-order="stroke fill markers" /><text font-family="geogebra-sans-serif, sans-serif" font-size="16px" font-style="normal" font-weight="normal" text-decoration="normal" dominant-baseline="alphabetic" fill="rgb(0, 0, 0)" fill-opacity="1" stroke="none" text-anchor="start" x="712" y="674">v</text><text font-family="geogebra-sans-serif, sans-serif" font-size="16px" font-style="normal" font-weight="normal" text-decoration="normal" dominant-baseline="alphabetic" fill="none" stroke="rgb(255, 255, 255)" stroke-linejoin="bevel" stroke-miterlimit="10" stroke-opacity="1" stroke-width="3" text-anchor="start" x="712" y="674">v</text><text font-family="geogebra-sans-serif, sans-serif" font-size="16px" font-style="normal" font-weight="normal" text-decoration="normal" dominant-baseline="alphabetic" fill="rgb(0, 0, 0)" fill-opacity="1" stroke="none" text-anchor="start" x="712" y="674">v</text><path fill="rgb(97, 97, 97)" fill-opacity="1" stroke="none" d="M 1000.19 541.843 C 1000.19 544.605 997.951 546.843 995.19 546.843 C 992.428 546.843 990.19 544.605 990.19 541.843 C 990.19 539.082 992.428 536.843 995.19 536.843 C 997.951 536.843 1000.19 539.082 1000.19 541.843 Z" paint-order="stroke fill markers" /><path fill="none" stroke="rgb(0, 0, 0)" stroke-linecap="round" stroke-linejoin="round" stroke-miterlimit="10" stroke-opacity="1" d="M 1000.19 541.843 C 1000.19 544.605 997.951 546.843 995.19 546.843 C 992.428 546.843 990.19 544.605 990.19 541.843 C 990.19 539.082 992.428 536.843 995.19 536.843 C 997.951 536.843 1000.19 539.082 1000.19 541.843 Z" paint-order="fill stroke markers" /><text font-family="geogebra-sans-serif, sans-serif" font-size="16px" font-style="normal" font-weight="normal" text-decoration="normal" dominant-baseline="alphabetic" fill="rgb(97, 97, 97)" fill-opacity="1" stroke="none" text-anchor="start" x="999" y="532">A</text><text font-family="geogebra-sans-serif, sans-serif" font-size="16px" font-style="normal" font-weight="normal" text-decoration="normal" dominant-baseline="alphabetic" fill="none" stroke="rgb(255, 255, 255)" stroke-linejoin="bevel" stroke-miterlimit="10" stroke-opacity="1" stroke-width="3" text-anchor="start" x="999" y="532">A</text><text font-family="geogebra-sans-serif, sans-serif" font-size="16px" font-style="normal" font-weight="normal" text-decoration="normal" dominant-baseline="alphabetic" fill="rgb(97, 97, 97)" fill-opacity="1" stroke="none" text-anchor="start" x="999" y="532">A</text><path fill="rgb(21, 101, 192)" fill-opacity="1" stroke="none" d="M 997.5 673.1 C 997.5 675.861 995.261 678.1 992.5 678.1 C 989.739 678.1 987.5 675.861 987.5 673.1 C 987.5 670.339 989.739 668.1 992.5 668.1 C 995.261 668.1 997.5 670.339 997.5 673.1 Z" paint-order="stroke fill markers" /><path fill="none" stroke="rgb(0, 0, 0)" stroke-linecap="round" stroke-linejoin="round" stroke-miterlimit="10" stroke-opacity="1" d="M 997.5 673.1 C 997.5 675.861 995.261 678.1 992.5 678.1 C 989.739 678.1 987.5 675.861 987.5 673.1 C 987.5 670.339 989.739 668.1 992.5 668.1 C 995.261 668.1 997.5 670.339 997.5 673.1 Z" paint-order="fill stroke markers" /><text font-family="geogebra-sans-serif, sans-serif" font-size="16px" font-style="normal" font-weight="normal" text-decoration="normal" dominant-baseline="alphabetic" fill="rgb(21, 101, 192)" fill-opacity="1" stroke="none" text-anchor="start" x="997" y="663">B</text><text font-family="geogebra-sans-serif, sans-serif" font-size="16px" font-style="normal" font-weight="normal" text-decoration="normal" dominant-baseline="alphabetic" fill="none" stroke="rgb(255, 255, 255)" stroke-linejoin="bevel" stroke-miterlimit="10" stroke-opacity="1" stroke-width="3" text-anchor="start" x="997" y="663">B</text><text font-family="geogebra-sans-serif, sans-serif" font-size="16px" font-style="normal" font-weight="normal" text-decoration="normal" dominant-baseline="alphabetic" fill="rgb(21, 101, 192)" fill-opacity="1" stroke="none" text-anchor="start" x="997" y="663">B</text><path fill="rgb(21, 101, 192)" fill-opacity="1" stroke="none" d="M 712.5 539.122 C 712.5 541.883 710.261 544.122 707.5 544.122 C 704.739 544.122 702.5 541.883 702.5 539.122 C 702.5 536.361 704.739 534.122 707.5 534.122 C 710.261 534.122 712.5 536.361 712.5 539.122 Z" paint-order="stroke fill markers" /><path fill="none" stroke="rgb(0, 0, 0)" stroke-linecap="round" stroke-linejoin="round" stroke-miterlimit="10" stroke-opacity="1" d="M 712.5 539.122 C 712.5 541.883 710.261 544.122 707.5 544.122 C 704.739 544.122 702.5 541.883 702.5 539.122 C 702.5 536.361 704.739 534.122 707.5 534.122 C 710.261 534.122 712.5 536.361 712.5 539.122 Z" paint-order="fill stroke markers" /><text font-family="geogebra-sans-serif, sans-serif" font-size="16px" font-style="normal" font-weight="normal" text-decoration="normal" dominant-baseline="alphabetic" fill="rgb(21, 101, 192)" fill-opacity="1" stroke="none" text-anchor="start" x="712" y="529">C</text><text font-family="geogebra-sans-serif, sans-serif" font-size="16px" font-style="normal" font-weight="normal" text-decoration="normal" dominant-baseline="alphabetic" fill="none" stroke="rgb(255, 255, 255)" stroke-linejoin="bevel" stroke-miterlimit="10" stroke-opacity="1" stroke-width="3" text-anchor="start" x="712" y="529">C</text><text font-family="geogebra-sans-serif, sans-serif" font-size="16px" font-style="normal" font-weight="normal" text-decoration="normal" dominant-baseline="alphabetic" fill="rgb(21, 101, 192)" fill-opacity="1" stroke="none" text-anchor="start" x="712" y="529">C</text><path fill="rgb(21, 101, 192)" fill-opacity="1" stroke="none" d="M 714 809 C 714 811.761 711.761 814 709 814 C 706.239 814 704 811.761 704 809 C 704 806.239 706.239 804 709 804 C 711.761 804 714 806.239 714 809 Z" paint-order="stroke fill markers" /><path fill="none" stroke="rgb(0, 0, 0)" stroke-linecap="round" stroke-linejoin="round" stroke-miterlimit="10" stroke-opacity="1" d="M 714 809 C 714 811.761 711.761 814 709 814 C 706.239 814 704 811.761 704 809 C 704 806.239 706.239 804 709 804 C 711.761 804 714 806.239 714 809 Z" paint-order="fill stroke markers" /><text font-family="geogebra-sans-serif, sans-serif" font-size="16px" font-style="normal" font-weight="normal" text-decoration="normal" dominant-baseline="alphabetic" fill="rgb(21, 101, 192)" fill-opacity="1" stroke="none" text-anchor="start" x="713" y="799">D</text><text font-family="geogebra-sans-serif, sans-serif" font-size="16px" font-style="normal" font-weight="normal" text-decoration="normal" dominant-baseline="alphabetic" fill="none" stroke="rgb(255, 255, 255)" stroke-linejoin="bevel" stroke-miterlimit="10" stroke-opacity="1" stroke-width="3" text-anchor="start" x="713" y="799">D</text><text font-family="geogebra-sans-serif, sans-serif" font-size="16px" font-style="normal" font-weight="normal" text-decoration="normal" dominant-baseline="alphabetic" fill="rgb(21, 101, 192)" fill-opacity="1" stroke="none" text-anchor="start" x="713" y="799">D</text><g transform="scale(19)"><g transform="translate(45.5263 24.2727)"><path fill="rgb(0, 0, 0)" stroke="none" d="M 0.359 -0.386 Q 0.323 -0.423 0.252 -0.423 Q 0.189 -0.423 0.151 -0.363 Q 0.117 -0.309 0.117 -0.218 Q 0.117 -0.074 0.203 -0.029 Q 0.23 -0.014 0.258 -0.014 Q 0.356 -0.014 0.389 -0.119 Q 0.392 -0.129 0.402 -0.129 Q 0.415 -0.129 0.415 -0.119 Q 0.415 -0.1 0.393 -0.065 Q 0.344 0.011 0.249 0.011 Q 0.155 0.011 0.09 -0.063 Q 0.034 -0.128 0.034 -0.216 Q 0.034 -0.319 0.105 -0.388 Q 0.166 -0.448 0.251 -0.448 Q 0.334 -0.448 0.378 -0.403 Q 0.404 -0.376 0.404 -0.341 Q 0.404 -0.303 0.371 -0.295 Q 0.365 -0.294 0.358 -0.294 Q 0.323 -0.294 0.314 -0.326 Q 0.312 -0.332 0.312 -0.34 Q 0.312 -0.376 0.347 -0.384 Q 0.353 -0.386 0.359 -0.386 Z" paint-order="stroke fill markers" /></g><g transform="translate(45.9708 24.2727)"><path fill="rgb(0, 0, 0)" stroke="none" d="M 0.471 -0.214 L 0.471 -0.214 Q 0.471 -0.111 0.395 -0.044 Q 0.332 0.011 0.249 0.011 Q 0.153 0.011 0.087 -0.061 Q 0.028 -0.126 0.028 -0.214 Q 0.028 -0.316 0.101 -0.386 Q 0.164 -0.448 0.25 -0.448 Q 0.347 -0.448 0.413 -0.371 Q 0.471 -0.304 0.471 -0.214 M 0.25 -0.014 L 0.25 -0.014 Q 0.317 -0.014 0.356 -0.07 L 0.366 -0.088 Q 0.388 -0.132 0.388 -0.222 Q 0.388 -0.318 0.362 -0.361 Q 0.319 -0.423 0.249 -0.426 Q 0.187 -0.426 0.147 -0.376 Q 0.14 -0.368 0.135 -0.359 Q 0.111 -0.315 0.111 -0.222 Q 0.111 -0.125 0.136 -0.081 Q 0.178 -0.016 0.25 -0.014 Z" paint-order="stroke fill markers" /></g><g transform="translate(46.4708 24.2727)"><path fill="rgb(0, 0, 0)" stroke="none" d="M 0.208 -0.194 L 0.208 -0.194 Q 0.122 -0.211 0.095 -0.227 Q 0.085 -0.232 0.076 -0.24 Q 0.033 -0.275 0.033 -0.325 Q 0.033 -0.395 0.095 -0.427 Q 0.134 -0.448 0.193 -0.448 Q 0.249 -0.448 0.287 -0.42 Q 0.298 -0.429 0.304 -0.436 Q 0.317 -0.448 0.324 -0.448 Q 0.334 -0.439 0.335 -0.424 L 0.335 -0.323 Q 0.335 -0.302 0.329 -0.3 L 0.328 -0.3 L 0.327 -0.299 L 0.322 -0.299 Q 0.311 -0.299 0.31 -0.308 Q 0.303 -0.409 0.227 -0.426 Q 0.211 -0.429 0.193 -0.429 Q 0.099 -0.429 0.083 -0.371 Q 0.081 -0.362 0.081 -0.353 Q 0.081 -0.302 0.158 -0.281 Q 0.173 -0.277 0.204 -0.271 Q 0.276 -0.257 0.307 -0.232 Q 0.313 -0.228 0.318 -0.223 Q 0.36 -0.181 0.36 -0.128 Q 0.36 -0.043 0.29 -0.008 Q 0.252 0.011 0.199 0.011 Q 0.134 0.011 0.089 -0.032 L 0.069 -0.009 Q 0.049 0.011 0.044 0.011 Q 0.034 0.002 0.033 -0.013 L 0.033 -0.145 Q 0.033 -0.167 0.04 -0.169 L 0.04 -0.169 L 0.041 -0.17 L 0.046 -0.17 Q 0.056 -0.17 0.059 -0.159 Q 0.059 -0.157 0.06 -0.153 Q 0.086 -0.037 0.159 -0.016 Q 0.177 -0.011 0.199 -0.011 Q 0.289 -0.011 0.308 -0.074 Q 0.312 -0.087 0.312 -0.102 Q 0.312 -0.175 0.208 -0.194 Z" paint-order="stroke fill markers" /></g><g transform="translate(47.0319 24.2727)"><path fill="rgb(0, 0, 0)" stroke="none" d="M 0.334 -0.302 L 0.3 -0.165 Q 0.283 -0.097 0.283 -0.077 Q 0.283 -0.025 0.32 -0.014 Q 0.328 -0.011 0.338 -0.011 Q 0.388 -0.011 0.429 -0.061 Q 0.456 -0.093 0.471 -0.142 Q 0.474 -0.153 0.484 -0.153 Q 0.496 -0.153 0.496 -0.143 Q 0.496 -0.118 0.465 -0.071 Q 0.411 0.011 0.336 0.011 Q 0.268 0.011 0.237 -0.046 Q 0.231 -0.055 0.228 -0.065 Q 0.204 -0.017 0.162 0.002 Q 0.143 0.011 0.123 0.011 Q 0.063 0.011 0.039 -0.024 Q 0.029 -0.037 0.029 -0.055 Q 0.029 -0.092 0.061 -0.107 Q 0.072 -0.113 0.084 -0.113 Q 0.114 -0.113 0.12 -0.088 Q 0.121 -0.083 0.121 -0.078 Q 0.121 -0.044 0.087 -0.028 Q 0.081 -0.025 0.074 -0.024 Q 0.095 -0.011 0.124 -0.011 Q 0.177 -0.011 0.208 -0.082 Q 0.214 -0.097 0.219 -0.115 Q 0.273 -0.319 0.273 -0.353 Q 0.267 -0.415 0.219 -0.42 Q 0.167 -0.42 0.124 -0.367 L 0.124 -0.366 Q 0.124 -0.365 0.123 -0.365 Q 0.108 -0.345 0.096 -0.319 Q 0.091 -0.307 0.087 -0.295 L 0.085 -0.289 Q 0.083 -0.278 0.072 -0.278 Q 0.06 -0.278 0.06 -0.288 Q 0.06 -0.313 0.092 -0.36 Q 0.146 -0.442 0.221 -0.442 Q 0.298 -0.442 0.329 -0.366 Q 0.361 -0.428 0.414 -0.44 Q 0.424 -0.442 0.434 -0.442 Q 0.493 -0.442 0.517 -0.409 Q 0.527 -0.395 0.527 -0.376 Q 0.527 -0.335 0.49 -0.321 Q 0.481 -0.318 0.473 -0.318 Q 0.442 -0.318 0.436 -0.345 Q 0.435 -0.349 0.435 -0.353 Q 0.435 -0.383 0.464 -0.4 Q 0.473 -0.405 0.483 -0.407 Q 0.462 -0.42 0.433 -0.42 Q 0.365 -0.42 0.337 -0.314 Q 0.335 -0.308 0.334 -0.302 Z" paint-order="stroke fill markers" /></g></g><g transform="scale(19)"><g transform="translate(44.6316 37.931)"><path fill="rgb(0, 0, 0)" stroke="none" d="M 0.208 -0.194 L 0.208 -0.194 Q 0.122 -0.211 0.095 -0.227 Q 0.085 -0.232 0.076 -0.24 Q 0.033 -0.275 0.033 -0.325 Q 0.033 -0.395 0.095 -0.427 Q 0.134 -0.448 0.193 -0.448 Q 0.249 -0.448 0.287 -0.42 Q 0.298 -0.429 0.304 -0.436 Q 0.317 -0.448 0.324 -0.448 Q 0.334 -0.439 0.335 -0.424 L 0.335 -0.323 Q 0.335 -0.302 0.329 -0.3 L 0.328 -0.3 L 0.327 -0.299 L 0.322 -0.299 Q 0.311 -0.299 0.31 -0.308 Q 0.303 -0.409 0.227 -0.426 Q 0.211 -0.429 0.193 -0.429 Q 0.099 -0.429 0.083 -0.371 Q 0.081 -0.362 0.081 -0.353 Q 0.081 -0.302 0.158 -0.281 Q 0.173 -0.277 0.204 -0.271 Q 0.276 -0.257 0.307 -0.232 Q 0.313 -0.228 0.318 -0.223 Q 0.36 -0.181 0.36 -0.128 Q 0.36 -0.043 0.29 -0.008 Q 0.252 0.011 0.199 0.011 Q 0.134 0.011 0.089 -0.032 L 0.069 -0.009 Q 0.049 0.011 0.044 0.011 Q 0.034 0.002 0.033 -0.013 L 0.033 -0.145 Q 0.033 -0.167 0.04 -0.169 L 0.04 -0.169 L 0.041 -0.17 L 0.046 -0.17 Q 0.056 -0.17 0.059 -0.159 Q 0.059 -0.157 0.06 -0.153 Q 0.086 -0.037 0.159 -0.016 Q 0.177 -0.011 0.199 -0.011 Q 0.289 -0.011 0.308 -0.074 Q 0.312 -0.087 0.312 -0.102 Q 0.312 -0.175 0.208 -0.194 Z" paint-order="stroke fill markers" /></g><g transform="translate(45.026 37.931)"><path fill="rgb(0, 0, 0)" stroke="none" d="M 0.177 -0.442 L 0.177 -0.442 L 0.177 -0.075 Q 0.177 -0.044 0.189 -0.037 L 0.189 -0.037 Q 0.201 -0.031 0.247 -0.031 L 0.247 0 Q 0.145 -0.003 0.143 -0.003 Q 0.129 -0.003 0.033 0 L 0.033 -0.031 Q 0.092 -0.031 0.102 -0.04 L 0.104 -0.042 Q 0.111 -0.05 0.111 -0.076 L 0.111 -0.345 Q 0.111 -0.385 0.095 -0.393 L 0.094 -0.393 L 0.094 -0.393 L 0.093 -0.394 L 0.093 -0.394 Q 0.08 -0.4 0.037 -0.4 L 0.037 -0.431 L 0.177 -0.442 M 0.181 -0.616 Q 0.181 -0.579 0.148 -0.567 Q 0.138 -0.563 0.128 -0.563 Q 0.093 -0.563 0.079 -0.595 L 0.079 -0.596 Q 0.075 -0.606 0.075 -0.616 Q 0.075 -0.647 0.103 -0.662 Q 0.114 -0.669 0.128 -0.669 Q 0.162 -0.669 0.176 -0.639 Q 0.181 -0.628 0.181 -0.616 Z" paint-order="stroke fill markers" /></g><g transform="translate(45.3038 37.931)"><path fill="rgb(0, 0, 0)" stroke="none" d="M 0.11 -0.344 Q 0.11 -0.383 0.095 -0.392 Q 0.083 -0.399 0.052 -0.4 L 0.032 -0.4 L 0.032 -0.431 L 0.173 -0.442 L 0.173 -0.337 Q 0.22 -0.442 0.321 -0.442 Q 0.396 -0.442 0.426 -0.405 Q 0.453 -0.374 0.456 -0.32 Q 0.457 -0.301 0.457 -0.252 L 0.457 -0.061 Q 0.458 -0.037 0.486 -0.033 Q 0.498 -0.031 0.535 -0.031 L 0.535 0 Q 0.433 -0.003 0.423 -0.003 Q 0.415 -0.003 0.31 0 L 0.31 -0.031 Q 0.369 -0.031 0.379 -0.04 L 0.381 -0.042 Q 0.388 -0.05 0.388 -0.076 L 0.388 -0.309 Q 0.388 -0.408 0.331 -0.418 Q 0.323 -0.42 0.314 -0.42 Q 0.253 -0.42 0.212 -0.367 Q 0.179 -0.324 0.179 -0.26 L 0.179 -0.076 Q 0.179 -0.042 0.195 -0.036 Q 0.206 -0.031 0.257 -0.031 L 0.257 0 Q 0.155 -0.003 0.145 -0.003 Q 0.137 -0.003 0.032 0 L 0.032 -0.031 Q 0.091 -0.031 0.101 -0.04 L 0.103 -0.042 Q 0.11 -0.05 0.11 -0.076 L 0.11 -0.344 Z" paint-order="stroke fill markers" /></g><g transform="translate(46.026 37.931)"><path fill="rgb(0, 0, 0)" stroke="none" d="M 0.334 -0.302 L 0.3 -0.165 Q 0.283 -0.097 0.283 -0.077 Q 0.283 -0.025 0.32 -0.014 Q 0.328 -0.011 0.338 -0.011 Q 0.388 -0.011 0.429 -0.061 Q 0.456 -0.093 0.471 -0.142 Q 0.474 -0.153 0.484 -0.153 Q 0.496 -0.153 0.496 -0.143 Q 0.496 -0.118 0.465 -0.071 Q 0.411 0.011 0.336 0.011 Q 0.268 0.011 0.237 -0.046 Q 0.231 -0.055 0.228 -0.065 Q 0.204 -0.017 0.162 0.002 Q 0.143 0.011 0.123 0.011 Q 0.063 0.011 0.039 -0.024 Q 0.029 -0.037 0.029 -0.055 Q 0.029 -0.092 0.061 -0.107 Q 0.072 -0.113 0.084 -0.113 Q 0.114 -0.113 0.12 -0.088 Q 0.121 -0.083 0.121 -0.078 Q 0.121 -0.044 0.087 -0.028 Q 0.081 -0.025 0.074 -0.024 Q 0.095 -0.011 0.124 -0.011 Q 0.177 -0.011 0.208 -0.082 Q 0.214 -0.097 0.219 -0.115 Q 0.273 -0.319 0.273 -0.353 Q 0.267 -0.415 0.219 -0.42 Q 0.167 -0.42 0.124 -0.367 L 0.124 -0.366 Q 0.124 -0.365 0.123 -0.365 Q 0.108 -0.345 0.096 -0.319 Q 0.091 -0.307 0.087 -0.295 L 0.085 -0.289 Q 0.083 -0.278 0.072 -0.278 Q 0.06 -0.278 0.06 -0.288 Q 0.06 -0.313 0.092 -0.36 Q 0.146 -0.442 0.221 -0.442 Q 0.298 -0.442 0.329 -0.366 Q 0.361 -0.428 0.414 -0.44 Q 0.424 -0.442 0.434 -0.442 Q 0.493 -0.442 0.517 -0.409 Q 0.527 -0.395 0.527 -0.376 Q 0.527 -0.335 0.49 -0.321 Q 0.481 -0.318 0.473 -0.318 Q 0.442 -0.318 0.436 -0.345 Q 0.435 -0.349 0.435 -0.353 Q 0.435 -0.383 0.464 -0.4 Q 0.473 -0.405 0.483 -0.407 Q 0.462 -0.42 0.433 -0.42 Q 0.365 -0.42 0.337 -0.314 Q 0.335 -0.308 0.334 -0.302 Z" paint-order="stroke fill markers" /></g></g><g transform="scale(19)"><g transform="translate(39.3684 32.6334)"><path fill="rgb(0, 0, 0)" stroke="none" d="M 0.334 -0.302 L 0.3 -0.165 Q 0.283 -0.097 0.283 -0.077 Q 0.283 -0.025 0.32 -0.014 Q 0.328 -0.011 0.338 -0.011 Q 0.388 -0.011 0.429 -0.061 Q 0.456 -0.093 0.471 -0.142 Q 0.474 -0.153 0.484 -0.153 Q 0.496 -0.153 0.496 -0.143 Q 0.496 -0.118 0.465 -0.071 Q 0.411 0.011 0.336 0.011 Q 0.268 0.011 0.237 -0.046 Q 0.231 -0.055 0.228 -0.065 Q 0.204 -0.017 0.162 0.002 Q 0.143 0.011 0.123 0.011 Q 0.063 0.011 0.039 -0.024 Q 0.029 -0.037 0.029 -0.055 Q 0.029 -0.092 0.061 -0.107 Q 0.072 -0.113 0.084 -0.113 Q 0.114 -0.113 0.12 -0.088 Q 0.121 -0.083 0.121 -0.078 Q 0.121 -0.044 0.087 -0.028 Q 0.081 -0.025 0.074 -0.024 Q 0.095 -0.011 0.124 -0.011 Q 0.177 -0.011 0.208 -0.082 Q 0.214 -0.097 0.219 -0.115 Q 0.273 -0.319 0.273 -0.353 Q 0.267 -0.415 0.219 -0.42 Q 0.167 -0.42 0.124 -0.367 L 0.124 -0.366 Q 0.124 -0.365 0.123 -0.365 Q 0.108 -0.345 0.096 -0.319 Q 0.091 -0.307 0.087 -0.295 L 0.085 -0.289 Q 0.083 -0.278 0.072 -0.278 Q 0.06 -0.278 0.06 -0.288 Q 0.06 -0.313 0.092 -0.36 Q 0.146 -0.442 0.221 -0.442 Q 0.298 -0.442 0.329 -0.366 Q 0.361 -0.428 0.414 -0.44 Q 0.424 -0.442 0.434 -0.442 Q 0.493 -0.442 0.517 -0.409 Q 0.527 -0.395 0.527 -0.376 Q 0.527 -0.335 0.49 -0.321 Q 0.481 -0.318 0.473 -0.318 Q 0.442 -0.318 0.436 -0.345 Q 0.435 -0.349 0.435 -0.353 Q 0.435 -0.383 0.464 -0.4 Q 0.473 -0.405 0.483 -0.407 Q 0.462 -0.42 0.433 -0.42 Q 0.365 -0.42 0.337 -0.314 Q 0.335 -0.308 0.334 -0.302 Z" paint-order="stroke fill markers" /></g><g transform="translate(40.2177 32.6334)"><path fill="rgb(0, 0, 0)" stroke="none" d="M 0.687 -0.327 L 0.09 -0.327 Q 0.058 -0.327 0.056 -0.347 Q 0.056 -0.367 0.089 -0.367 L 0.688 -0.367 Q 0.72 -0.367 0.721 -0.347 Q 0.721 -0.327 0.687 -0.327 M 0.688 -0.133 L 0.089 -0.133 Q 0.057 -0.133 0.056 -0.153 Q 0.056 -0.173 0.09 -0.173 L 0.687 -0.173 Q 0.719 -0.173 0.721 -0.153 Q 0.721 -0.133 0.688 -0.133 Z" paint-order="stroke fill markers" /></g><g transform="translate(41.3362 31.9569)"><path fill="rgb(0, 0, 0)" stroke="none" d="M 0.265 -0.373 L 0.265 -0.373 L 0.209 -0.152 Q 0.192 -0.088 0.182 -0.054 Q 0.166 -0.005 0.152 0.005 L 0.152 0.006 Q 0.143 0.011 0.132 0.011 Q 0.109 0.011 0.104 -0.009 Q 0.103 -0.012 0.103 -0.016 Q 0.103 -0.025 0.111 -0.04 Q 0.205 -0.243 0.239 -0.373 L 0.182 -0.373 Q 0.104 -0.373 0.055 -0.296 Q 0.046 -0.284 0.039 -0.284 Q 0.027 -0.284 0.027 -0.294 Q 0.027 -0.305 0.063 -0.354 Q 0.07 -0.362 0.076 -0.37 Q 0.079 -0.374 0.083 -0.378 Q 0.085 -0.381 0.088 -0.384 Q 0.132 -0.431 0.192 -0.431 L 0.527 -0.431 Q 0.561 -0.431 0.566 -0.416 L 0.566 -0.415 Q 0.567 -0.412 0.567 -0.407 Q 0.567 -0.373 0.518 -0.373 L 0.404 -0.373 Q 0.386 -0.288 0.386 -0.214 Q 0.386 -0.121 0.415 -0.049 Q 0.421 -0.035 0.421 -0.027 Q 0.421 -0.004 0.396 0.007 Q 0.388 0.011 0.38 0.011 Q 0.36 0.011 0.35 -0.017 Q 0.347 -0.026 0.344 -0.039 Q 0.336 -0.073 0.336 -0.115 Q 0.336 -0.181 0.363 -0.306 L 0.378 -0.373 L 0.265 -0.373 Z" paint-order="stroke fill markers" /></g><rect fill="rgb(0, 0, 0)" stroke="none" x="41.3362" y="32.3634" width="0.605906" height="0.039999" /><g transform="translate(41.3892 33.3193)"><path fill="rgb(0, 0, 0)" stroke="none" d="M 0.028 -0.165 L 0.028 -0.196 L 0.335 -0.665 Q 0.343 -0.677 0.355 -0.677 Q 0.369 -0.677 0.371 -0.666 L 0.371 -0.651 L 0.371 -0.196 L 0.471 -0.196 L 0.471 -0.165 L 0.371 -0.165 L 0.371 -0.078 Q 0.371 -0.047 0.383 -0.04 Q 0.397 -0.031 0.447 -0.031 L 0.468 -0.031 L 0.468 0 Q 0.427 -0.003 0.332 -0.003 Q 0.238 -0.003 0.197 0 L 0.197 -0.031 L 0.218 -0.031 Q 0.28 -0.031 0.29 -0.048 Q 0.294 -0.055 0.294 -0.078 L 0.294 -0.165 L 0.028 -0.165 M 0.3 -0.196 L 0.3 -0.569 L 0.056 -0.196 L 0.3 -0.196 Z" paint-order="stroke fill markers" /></g></g><g transform="scale(19)"><g transform="translate(51.5789 37.8965)"><path fill="rgb(0, 0, 0)" stroke="none" d="M 0.334 -0.302 L 0.3 -0.165 Q 0.283 -0.097 0.283 -0.077 Q 0.283 -0.025 0.32 -0.014 Q 0.328 -0.011 0.338 -0.011 Q 0.388 -0.011 0.429 -0.061 Q 0.456 -0.093 0.471 -0.142 Q 0.474 -0.153 0.484 -0.153 Q 0.496 -0.153 0.496 -0.143 Q 0.496 -0.118 0.465 -0.071 Q 0.411 0.011 0.336 0.011 Q 0.268 0.011 0.237 -0.046 Q 0.231 -0.055 0.228 -0.065 Q 0.204 -0.017 0.162 0.002 Q 0.143 0.011 0.123 0.011 Q 0.063 0.011 0.039 -0.024 Q 0.029 -0.037 0.029 -0.055 Q 0.029 -0.092 0.061 -0.107 Q 0.072 -0.113 0.084 -0.113 Q 0.114 -0.113 0.12 -0.088 Q 0.121 -0.083 0.121 -0.078 Q 0.121 -0.044 0.087 -0.028 Q 0.081 -0.025 0.074 -0.024 Q 0.095 -0.011 0.124 -0.011 Q 0.177 -0.011 0.208 -0.082 Q 0.214 -0.097 0.219 -0.115 Q 0.273 -0.319 0.273 -0.353 Q 0.267 -0.415 0.219 -0.42 Q 0.167 -0.42 0.124 -0.367 L 0.124 -0.366 Q 0.124 -0.365 0.123 -0.365 Q 0.108 -0.345 0.096 -0.319 Q 0.091 -0.307 0.087 -0.295 L 0.085 -0.289 Q 0.083 -0.278 0.072 -0.278 Q 0.06 -0.278 0.06 -0.288 Q 0.06 -0.313 0.092 -0.36 Q 0.146 -0.442 0.221 -0.442 Q 0.298 -0.442 0.329 -0.366 Q 0.361 -0.428 0.414 -0.44 Q 0.424 -0.442 0.434 -0.442 Q 0.493 -0.442 0.517 -0.409 Q 0.527 -0.395 0.527 -0.376 Q 0.527 -0.335 0.49 -0.321 Q 0.481 -0.318 0.473 -0.318 Q 0.442 -0.318 0.436 -0.345 Q 0.435 -0.349 0.435 -0.353 Q 0.435 -0.383 0.464 -0.4 Q 0.473 -0.405 0.483 -0.407 Q 0.462 -0.42 0.433 -0.42 Q 0.365 -0.42 0.337 -0.314 Q 0.335 -0.308 0.334 -0.302 Z" paint-order="stroke fill markers" /></g><g transform="translate(52.4283 37.8965)"><path fill="rgb(0, 0, 0)" stroke="none" d="M 0.687 -0.327 L 0.09 -0.327 Q 0.058 -0.327 0.056 -0.347 Q 0.056 -0.367 0.089 -0.367 L 0.688 -0.367 Q 0.72 -0.367 0.721 -0.347 Q 0.721 -0.327 0.687 -0.327 M 0.688 -0.133 L 0.089 -0.133 Q 0.057 -0.133 0.056 -0.153 Q 0.056 -0.173 0.09 -0.173 L 0.687 -0.173 Q 0.719 -0.173 0.721 -0.153 Q 0.721 -0.133 0.688 -0.133 Z" paint-order="stroke fill markers" /></g><g transform="translate(53.5467 37.22)"><path fill="rgb(0, 0, 0)" stroke="none" d="M 0.265 -0.373 L 0.265 -0.373 L 0.209 -0.152 Q 0.192 -0.088 0.182 -0.054 Q 0.166 -0.005 0.152 0.005 L 0.152 0.006 Q 0.143 0.011 0.132 0.011 Q 0.109 0.011 0.104 -0.009 Q 0.103 -0.012 0.103 -0.016 Q 0.103 -0.025 0.111 -0.04 Q 0.205 -0.243 0.239 -0.373 L 0.182 -0.373 Q 0.104 -0.373 0.055 -0.296 Q 0.046 -0.284 0.039 -0.284 Q 0.027 -0.284 0.027 -0.294 Q 0.027 -0.305 0.063 -0.354 Q 0.07 -0.362 0.076 -0.37 Q 0.079 -0.374 0.083 -0.378 Q 0.085 -0.381 0.088 -0.384 Q 0.132 -0.431 0.192 -0.431 L 0.527 -0.431 Q 0.561 -0.431 0.566 -0.416 L 0.566 -0.415 Q 0.567 -0.412 0.567 -0.407 Q 0.567 -0.373 0.518 -0.373 L 0.404 -0.373 Q 0.386 -0.288 0.386 -0.214 Q 0.386 -0.121 0.415 -0.049 Q 0.421 -0.035 0.421 -0.027 Q 0.421 -0.004 0.396 0.007 Q 0.388 0.011 0.38 0.011 Q 0.36 0.011 0.35 -0.017 Q 0.347 -0.026 0.344 -0.039 Q 0.336 -0.073 0.336 -0.115 Q 0.336 -0.181 0.363 -0.306 L 0.378 -0.373 L 0.265 -0.373 Z" paint-order="stroke fill markers" /></g><rect fill="rgb(0, 0, 0)" stroke="none" x="53.5467" y="37.6265" width="0.605906" height="0.039999" /><g transform="translate(53.5997 38.5825)"><path fill="rgb(0, 0, 0)" stroke="none" d="M 0.028 -0.165 L 0.028 -0.196 L 0.335 -0.665 Q 0.343 -0.677 0.355 -0.677 Q 0.369 -0.677 0.371 -0.666 L 0.371 -0.651 L 0.371 -0.196 L 0.471 -0.196 L 0.471 -0.165 L 0.371 -0.165 L 0.371 -0.078 Q 0.371 -0.047 0.383 -0.04 Q 0.397 -0.031 0.447 -0.031 L 0.468 -0.031 L 0.468 0 Q 0.427 -0.003 0.332 -0.003 Q 0.238 -0.003 0.197 0 L 0.197 -0.031 L 0.218 -0.031 Q 0.28 -0.031 0.29 -0.048 Q 0.294 -0.055 0.294 -0.078 L 0.294 -0.165 L 0.028 -0.165 M 0.3 -0.196 L 0.3 -0.569 L 0.056 -0.196 L 0.3 -0.196 Z" paint-order="stroke fill markers" /></g></g></g></g></svg>